<svg xmlns="http://www.w3.org/2000/svg" xmlns:xlink="http://www.w3.org/1999/xlink" width="1080" zoomAndPan="magnify" viewBox="0 0 810 809.999993" height="1080" preserveAspectRatio="xMidYMid meet" version="1.0"><defs><clipPath id="baf9723561"><path d="M 221.304688 221.304688 L 588.804688 221.304688 L 588.804688 588.804688 L 221.304688 588.804688 Z M 221.304688 221.304688 " clip-rule="nonzero"/></clipPath></defs><g clip-path="url(#baf9723561)"><path fill="#c38ac4" d="M 368.257812 343.765625 C 368.257812 343.363281 368.21875 342.964844 368.140625 342.570312 C 368.0625 342.175781 367.945312 341.792969 367.792969 341.421875 C 367.636719 341.050781 367.449219 340.695312 367.226562 340.363281 C 367 340.027344 366.75 339.71875 366.464844 339.433594 C 366.179688 339.148438 365.871094 338.894531 365.535156 338.671875 C 365.203125 338.449219 364.847656 338.261719 364.476562 338.105469 C 364.105469 337.953125 363.722656 337.835938 363.328125 337.757812 C 362.933594 337.679688 362.535156 337.640625 362.132812 337.640625 L 325.394531 337.640625 C 324.992188 337.640625 324.59375 337.679688 324.199219 337.757812 C 323.804688 337.835938 323.421875 337.953125 323.050781 338.105469 C 322.679688 338.261719 322.328125 338.449219 321.992188 338.671875 C 321.660156 338.894531 321.347656 339.148438 321.066406 339.433594 C 320.78125 339.71875 320.527344 340.027344 320.304688 340.363281 C 320.082031 340.695312 319.890625 341.050781 319.738281 341.421875 C 319.585938 341.792969 319.46875 342.175781 319.390625 342.570312 C 319.3125 342.964844 319.273438 343.363281 319.273438 343.765625 L 319.273438 380.503906 C 319.273438 380.90625 319.3125 381.304688 319.390625 381.699219 C 319.46875 382.09375 319.585938 382.476562 319.738281 382.847656 C 319.890625 383.21875 320.082031 383.570312 320.304688 383.90625 C 320.527344 384.238281 320.78125 384.546875 321.066406 384.832031 C 321.347656 385.117188 321.660156 385.371094 321.992188 385.59375 C 322.328125 385.816406 322.679688 386.007812 323.050781 386.160156 C 323.421875 386.3125 323.804688 386.429688 324.199219 386.507812 C 324.59375 386.585938 324.992188 386.625 325.394531 386.625 L 362.132812 386.625 C 362.535156 386.625 362.933594 386.585938 363.328125 386.507812 C 363.722656 386.429688 364.105469 386.3125 364.476562 386.160156 C 364.847656 386.007812 365.203125 385.816406 365.535156 385.59375 C 365.871094 385.371094 366.179688 385.117188 366.464844 384.832031 C 366.75 384.546875 367 384.238281 367.226562 383.90625 C 367.449219 383.570312 367.636719 383.21875 367.792969 382.847656 C 367.945312 382.476562 368.0625 382.09375 368.140625 381.699219 C 368.21875 381.304688 368.257812 380.90625 368.257812 380.503906 Z M 356.011719 374.378906 L 331.519531 374.378906 L 331.519531 349.886719 L 356.011719 349.886719 Z M 386.625 337.640625 C 386.222656 337.640625 385.824219 337.679688 385.429688 337.757812 C 385.035156 337.835938 384.652344 337.953125 384.28125 338.105469 C 383.910156 338.261719 383.558594 338.449219 383.222656 338.671875 C 382.890625 338.894531 382.578125 339.148438 382.296875 339.433594 C 382.011719 339.71875 381.757812 340.027344 381.535156 340.363281 C 381.3125 340.695312 381.121094 341.050781 380.96875 341.421875 C 380.816406 341.792969 380.699219 342.175781 380.621094 342.570312 C 380.542969 342.964844 380.503906 343.363281 380.503906 343.765625 L 380.503906 380.503906 C 380.503906 380.90625 380.542969 381.304688 380.621094 381.699219 C 380.699219 382.09375 380.816406 382.476562 380.96875 382.847656 C 381.121094 383.21875 381.3125 383.570312 381.535156 383.90625 C 381.757812 384.238281 382.011719 384.546875 382.296875 384.832031 C 382.578125 385.117188 382.890625 385.371094 383.222656 385.59375 C 383.558594 385.816406 383.910156 386.007812 384.28125 386.160156 C 384.652344 386.3125 385.035156 386.429688 385.429688 386.507812 C 385.824219 386.585938 386.222656 386.625 386.625 386.625 L 423.363281 386.625 C 423.765625 386.625 424.164062 386.585938 424.558594 386.507812 C 424.953125 386.429688 425.335938 386.3125 425.707031 386.160156 C 426.078125 386.007812 426.433594 385.816406 426.765625 385.59375 C 427.101562 385.371094 427.410156 385.117188 427.695312 384.832031 C 427.980469 384.546875 428.230469 384.238281 428.457031 383.90625 C 428.679688 383.570312 428.867188 383.21875 429.019531 382.847656 C 429.175781 382.476562 429.292969 382.09375 429.371094 381.699219 C 429.449219 381.304688 429.488281 380.90625 429.488281 380.503906 L 429.488281 343.765625 C 429.488281 343.363281 429.449219 342.964844 429.371094 342.570312 C 429.292969 342.175781 429.175781 341.792969 429.023438 341.421875 C 428.867188 341.050781 428.679688 340.695312 428.457031 340.363281 C 428.230469 340.027344 427.980469 339.71875 427.695312 339.433594 C 427.410156 339.148438 427.101562 338.894531 426.765625 338.671875 C 426.433594 338.449219 426.078125 338.261719 425.707031 338.105469 C 425.335938 337.953125 424.953125 337.835938 424.558594 337.757812 C 424.164062 337.679688 423.765625 337.640625 423.363281 337.640625 Z M 417.242188 374.378906 L 392.75 374.378906 L 392.75 349.886719 L 417.242188 349.886719 Z M 307.027344 404.996094 C 307.027344 404.59375 306.988281 404.195312 306.910156 403.800781 C 306.832031 403.40625 306.714844 403.023438 306.5625 402.652344 C 306.40625 402.28125 306.21875 401.925781 305.996094 401.59375 C 305.769531 401.257812 305.519531 400.949219 305.234375 400.664062 C 304.949219 400.378906 304.640625 400.125 304.304688 399.902344 C 303.972656 399.679688 303.617188 399.492188 303.246094 399.335938 C 302.875 399.183594 302.492188 399.066406 302.097656 398.988281 C 301.703125 398.910156 301.304688 398.871094 300.902344 398.871094 L 264.164062 398.871094 C 263.761719 398.871094 263.363281 398.910156 262.96875 398.988281 C 262.574219 399.066406 262.191406 399.183594 261.820312 399.335938 C 261.449219 399.492188 261.097656 399.679688 260.761719 399.902344 C 260.429688 400.125 260.117188 400.378906 259.835938 400.664062 C 259.550781 400.949219 259.296875 401.257812 259.074219 401.59375 C 258.851562 401.925781 258.660156 402.28125 258.507812 402.652344 C 258.355469 403.023438 258.238281 403.40625 258.160156 403.800781 C 258.082031 404.195312 258.042969 404.59375 258.042969 404.996094 L 258.042969 441.734375 C 258.042969 442.136719 258.082031 442.535156 258.160156 442.929688 C 258.238281 443.324219 258.355469 443.707031 258.507812 444.078125 C 258.660156 444.449219 258.851562 444.800781 259.074219 445.136719 C 259.296875 445.46875 259.550781 445.777344 259.835938 446.0625 C 260.117188 446.347656 260.429688 446.601562 260.761719 446.824219 C 261.097656 447.046875 261.449219 447.238281 261.820312 447.390625 C 262.191406 447.542969 262.574219 447.660156 262.96875 447.738281 C 263.363281 447.816406 263.761719 447.855469 264.164062 447.855469 L 300.902344 447.855469 C 301.304688 447.855469 301.703125 447.816406 302.097656 447.738281 C 302.492188 447.660156 302.875 447.542969 303.246094 447.390625 C 303.617188 447.238281 303.972656 447.046875 304.304688 446.824219 C 304.640625 446.601562 304.949219 446.347656 305.234375 446.0625 C 305.519531 445.777344 305.769531 445.46875 305.996094 445.136719 C 306.21875 444.800781 306.40625 444.449219 306.5625 444.078125 C 306.714844 443.707031 306.832031 443.320312 306.910156 442.929688 C 306.988281 442.535156 307.027344 442.136719 307.027344 441.734375 Z M 294.78125 435.609375 L 270.289062 435.609375 L 270.289062 411.117188 L 294.78125 411.117188 Z M 368.257812 404.996094 C 368.257812 404.59375 368.21875 404.195312 368.140625 403.800781 C 368.0625 403.40625 367.945312 403.023438 367.792969 402.652344 C 367.636719 402.28125 367.449219 401.925781 367.226562 401.59375 C 367 401.257812 366.75 400.949219 366.464844 400.664062 C 366.179688 400.378906 365.871094 400.125 365.535156 399.902344 C 365.203125 399.679688 364.847656 399.492188 364.476562 399.335938 C 364.105469 399.183594 363.722656 399.066406 363.328125 398.988281 C 362.933594 398.910156 362.535156 398.871094 362.132812 398.871094 L 325.394531 398.871094 C 324.992188 398.871094 324.59375 398.910156 324.199219 398.988281 C 323.804688 399.066406 323.421875 399.183594 323.050781 399.335938 C 322.679688 399.492188 322.328125 399.679688 321.992188 399.902344 C 321.660156 400.125 321.347656 400.378906 321.066406 400.664062 C 320.78125 400.949219 320.527344 401.257812 320.304688 401.59375 C 320.082031 401.925781 319.890625 402.28125 319.738281 402.652344 C 319.585938 403.023438 319.46875 403.40625 319.390625 403.800781 C 319.3125 404.195312 319.273438 404.59375 319.273438 404.996094 L 319.273438 441.734375 C 319.273438 442.136719 319.3125 442.535156 319.390625 442.929688 C 319.46875 443.320312 319.585938 443.707031 319.738281 444.078125 C 319.890625 444.449219 320.082031 444.800781 320.304688 445.136719 C 320.527344 445.46875 320.78125 445.777344 321.066406 446.0625 C 321.347656 446.347656 321.660156 446.601562 321.992188 446.824219 C 322.328125 447.046875 322.679688 447.238281 323.050781 447.390625 C 323.421875 447.542969 323.804688 447.660156 324.199219 447.738281 C 324.59375 447.816406 324.992188 447.855469 325.394531 447.855469 L 362.132812 447.855469 C 362.535156 447.855469 362.933594 447.816406 363.328125 447.738281 C 363.722656 447.660156 364.105469 447.542969 364.476562 447.390625 C 364.847656 447.238281 365.203125 447.046875 365.535156 446.824219 C 365.871094 446.601562 366.179688 446.347656 366.464844 446.0625 C 366.75 445.777344 367 445.46875 367.226562 445.136719 C 367.449219 444.800781 367.636719 444.449219 367.789062 444.078125 C 367.945312 443.707031 368.0625 443.324219 368.140625 442.929688 C 368.21875 442.535156 368.257812 442.136719 368.257812 441.734375 Z M 356.011719 435.609375 L 331.519531 435.609375 L 331.519531 411.117188 L 356.011719 411.117188 Z M 300.902344 460.101562 L 264.164062 460.101562 C 263.761719 460.101562 263.363281 460.140625 262.96875 460.21875 C 262.574219 460.296875 262.191406 460.414062 261.820312 460.566406 C 261.449219 460.722656 261.097656 460.910156 260.761719 461.132812 C 260.429688 461.355469 260.117188 461.609375 259.835938 461.894531 C 259.550781 462.179688 259.296875 462.488281 259.074219 462.824219 C 258.851562 463.15625 258.660156 463.511719 258.507812 463.882812 C 258.355469 464.253906 258.238281 464.636719 258.160156 465.03125 C 258.082031 465.425781 258.042969 465.824219 258.042969 466.226562 L 258.042969 502.964844 C 258.042969 503.367188 258.082031 503.765625 258.160156 504.160156 C 258.238281 504.554688 258.355469 504.9375 258.507812 505.308594 C 258.660156 505.679688 258.851562 506.03125 259.074219 506.367188 C 259.296875 506.699219 259.550781 507.007812 259.835938 507.292969 C 260.117188 507.578125 260.429688 507.832031 260.761719 508.054688 C 261.097656 508.277344 261.449219 508.46875 261.820312 508.621094 C 262.191406 508.773438 262.574219 508.890625 262.96875 508.96875 C 263.363281 509.046875 263.761719 509.085938 264.164062 509.085938 L 300.902344 509.085938 C 301.304688 509.085938 301.703125 509.046875 302.097656 508.96875 C 302.492188 508.890625 302.875 508.773438 303.246094 508.621094 C 303.617188 508.46875 303.972656 508.277344 304.304688 508.054688 C 304.640625 507.832031 304.949219 507.578125 305.234375 507.292969 C 305.519531 507.007812 305.769531 506.699219 305.996094 506.367188 C 306.21875 506.03125 306.40625 505.679688 306.5625 505.308594 C 306.714844 504.9375 306.832031 504.550781 306.910156 504.160156 C 306.988281 503.765625 307.027344 503.367188 307.027344 502.964844 L 307.027344 466.226562 C 307.027344 465.824219 306.988281 465.425781 306.910156 465.03125 C 306.832031 464.636719 306.714844 464.253906 306.5625 463.882812 C 306.40625 463.511719 306.21875 463.15625 305.996094 462.824219 C 305.769531 462.488281 305.519531 462.179688 305.234375 461.894531 C 304.949219 461.609375 304.640625 461.355469 304.304688 461.132812 C 303.972656 460.910156 303.617188 460.722656 303.246094 460.566406 C 302.875 460.414062 302.492188 460.296875 302.097656 460.21875 C 301.703125 460.140625 301.304688 460.101562 300.902344 460.101562 Z M 294.78125 496.839844 L 270.289062 496.839844 L 270.289062 472.347656 L 294.78125 472.347656 Z M 362.132812 460.101562 L 325.394531 460.101562 C 324.992188 460.101562 324.59375 460.140625 324.199219 460.21875 C 323.804688 460.296875 323.421875 460.414062 323.050781 460.566406 C 322.679688 460.722656 322.328125 460.910156 321.992188 461.132812 C 321.660156 461.355469 321.347656 461.609375 321.066406 461.894531 C 320.78125 462.179688 320.527344 462.488281 320.304688 462.824219 C 320.082031 463.15625 319.890625 463.511719 319.738281 463.882812 C 319.585938 464.253906 319.46875 464.636719 319.390625 465.03125 C 319.3125 465.425781 319.273438 465.824219 319.273438 466.226562 L 319.273438 502.964844 C 319.273438 503.367188 319.3125 503.765625 319.390625 504.160156 C 319.46875 504.550781 319.585938 504.9375 319.738281 505.308594 C 319.890625 505.679688 320.082031 506.03125 320.304688 506.367188 C 320.527344 506.699219 320.78125 507.007812 321.066406 507.292969 C 321.347656 507.578125 321.660156 507.832031 321.992188 508.054688 C 322.328125 508.277344 322.679688 508.46875 323.050781 508.621094 C 323.421875 508.773438 323.804688 508.890625 324.199219 508.96875 C 324.59375 509.046875 324.992188 509.085938 325.394531 509.085938 L 362.132812 509.085938 C 362.535156 509.085938 362.933594 509.046875 363.328125 508.96875 C 363.722656 508.890625 364.105469 508.773438 364.476562 508.621094 C 364.847656 508.46875 365.203125 508.277344 365.535156 508.054688 C 365.871094 507.832031 366.179688 507.578125 366.464844 507.292969 C 366.75 507.007812 367 506.699219 367.226562 506.367188 C 367.449219 506.03125 367.636719 505.679688 367.789062 505.308594 C 367.945312 504.9375 368.0625 504.554688 368.140625 504.160156 C 368.21875 503.765625 368.257812 503.367188 368.257812 502.964844 L 368.257812 466.226562 C 368.257812 465.824219 368.21875 465.425781 368.140625 465.03125 C 368.0625 464.636719 367.945312 464.253906 367.792969 463.882812 C 367.636719 463.511719 367.449219 463.15625 367.226562 462.824219 C 367 462.488281 366.75 462.179688 366.464844 461.894531 C 366.179688 461.609375 365.871094 461.355469 365.535156 461.132812 C 365.203125 460.910156 364.847656 460.722656 364.476562 460.566406 C 364.105469 460.414062 363.722656 460.296875 363.328125 460.21875 C 362.933594 460.140625 362.535156 460.101562 362.132812 460.101562 Z M 356.011719 496.839844 L 331.519531 496.839844 L 331.519531 472.347656 L 356.011719 472.347656 Z M 484.59375 380.503906 C 482.890625 380.503906 481.1875 380.542969 479.488281 380.628906 C 477.785156 380.710938 476.085938 380.835938 474.390625 381.003906 C 472.695312 381.171875 471.007812 381.378906 469.320312 381.628906 C 467.636719 381.878906 465.957031 382.171875 464.289062 382.503906 C 462.617188 382.835938 460.953125 383.207031 459.300781 383.621094 C 457.648438 384.035156 456.007812 384.492188 454.378906 384.984375 C 452.75 385.480469 451.132812 386.015625 449.527344 386.585938 C 447.921875 387.160156 446.335938 387.773438 444.761719 388.425781 C 443.1875 389.078125 441.628906 389.769531 440.089844 390.496094 C 438.550781 391.226562 437.027344 391.992188 435.527344 392.792969 C 434.023438 393.597656 432.542969 394.4375 431.082031 395.3125 C 429.621094 396.1875 428.179688 397.097656 426.765625 398.046875 C 425.347656 398.992188 423.957031 399.972656 422.585938 400.988281 C 421.21875 402.003906 419.875 403.050781 418.558594 404.128906 C 417.242188 405.210938 415.953125 406.324219 414.691406 407.46875 C 413.429688 408.613281 412.195312 409.785156 410.992188 410.992188 C 409.785156 412.195312 408.613281 413.429688 407.46875 414.691406 C 406.324219 415.953125 405.210938 417.242188 404.128906 418.558594 C 403.050781 419.875 402.003906 421.21875 400.988281 422.585938 C 399.972656 423.957031 398.992188 425.347656 398.046875 426.765625 C 397.097656 428.179688 396.1875 429.621094 395.3125 431.082031 C 394.4375 432.542969 393.597656 434.023438 392.792969 435.527344 C 391.992188 437.027344 391.226562 438.550781 390.496094 440.089844 C 389.769531 441.628906 389.078125 443.1875 388.425781 444.761719 C 387.773438 446.335938 387.160156 447.921875 386.585938 449.527344 C 386.011719 451.132812 385.480469 452.75 384.984375 454.378906 C 384.492188 456.007812 384.035156 457.648438 383.621094 459.300781 C 383.207031 460.953125 382.835938 462.617188 382.503906 464.289062 C 382.171875 465.957031 381.878906 467.636719 381.628906 469.320312 C 381.378906 471.007812 381.171875 472.695312 381.003906 474.390625 C 380.835938 476.085938 380.710938 477.785156 380.628906 479.488281 C 380.542969 481.1875 380.503906 482.890625 380.503906 484.59375 C 380.503906 486.296875 380.542969 488 380.628906 489.703125 C 380.710938 491.402344 380.835938 493.101562 381.003906 494.796875 C 381.171875 496.492188 381.378906 498.183594 381.628906 499.867188 C 381.878906 501.554688 382.171875 503.230469 382.503906 504.902344 C 382.835938 506.574219 383.207031 508.234375 383.621094 509.886719 C 384.035156 511.539062 384.492188 513.179688 384.984375 514.8125 C 385.480469 516.441406 386.011719 518.058594 386.585938 519.660156 C 387.160156 521.265625 387.773438 522.855469 388.425781 524.429688 C 389.078125 526.003906 389.769531 527.558594 390.496094 529.097656 C 391.226562 530.640625 391.992188 532.160156 392.792969 533.664062 C 393.597656 535.164062 394.4375 536.648438 395.3125 538.109375 C 396.1875 539.570312 397.097656 541.007812 398.046875 542.425781 C 398.992188 543.839844 399.972656 545.234375 400.988281 546.601562 C 402.003906 547.96875 403.050781 549.3125 404.128906 550.628906 C 405.210938 551.945312 406.324219 553.234375 407.46875 554.5 C 408.613281 555.761719 409.785156 556.992188 410.992188 558.199219 C 412.195312 559.402344 413.429688 560.578125 414.691406 561.722656 C 415.953125 562.867188 417.242188 563.976562 418.558594 565.058594 C 419.875 566.140625 421.21875 567.1875 422.585938 568.203125 C 423.957031 569.214844 425.347656 570.199219 426.765625 571.144531 C 428.179688 572.089844 429.621094 573 431.082031 573.878906 C 432.542969 574.753906 434.023438 575.59375 435.527344 576.394531 C 437.027344 577.199219 438.550781 577.964844 440.089844 578.691406 C 441.628906 579.421875 443.1875 580.109375 444.761719 580.761719 C 446.335938 581.414062 447.921875 582.027344 449.527344 582.601562 C 451.132812 583.175781 452.75 583.710938 454.378906 584.203125 C 456.007812 584.699219 457.648438 585.152344 459.300781 585.566406 C 460.953125 585.980469 462.617188 586.355469 464.289062 586.6875 C 465.957031 587.019531 467.636719 587.308594 469.320312 587.558594 C 471.007812 587.808594 472.695312 588.019531 474.390625 588.183594 C 476.085938 588.351562 477.785156 588.476562 479.488281 588.5625 C 481.1875 588.644531 482.890625 588.6875 484.59375 588.6875 C 486.296875 588.6875 488 588.644531 489.703125 588.5625 C 491.402344 588.476562 493.101562 588.351562 494.796875 588.183594 C 496.492188 588.019531 498.183594 587.808594 499.867188 587.558594 C 501.554688 587.308594 503.230469 587.019531 504.902344 586.6875 C 506.574219 586.355469 508.234375 585.980469 509.886719 585.566406 C 511.539062 585.152344 513.179688 584.699219 514.8125 584.203125 C 516.441406 583.710938 518.058594 583.175781 519.660156 582.601562 C 521.265625 582.027344 522.855469 581.414062 524.429688 580.761719 C 526.003906 580.109375 527.558594 579.421875 529.097656 578.691406 C 530.640625 577.964844 532.160156 577.199219 533.664062 576.394531 C 535.164062 575.59375 536.648438 574.753906 538.109375 573.878906 C 539.570312 573 541.007812 572.089844 542.425781 571.144531 C 543.839844 570.199219 545.234375 569.214844 546.601562 568.203125 C 547.96875 567.1875 549.3125 566.140625 550.628906 565.058594 C 551.945312 563.976562 553.234375 562.867188 554.5 561.722656 C 555.761719 560.578125 556.992188 559.402344 558.199219 558.199219 C 559.402344 556.992188 560.578125 555.761719 561.722656 554.5 C 562.867188 553.234375 563.976562 551.945312 565.058594 550.628906 C 566.140625 549.3125 567.1875 547.96875 568.203125 546.601562 C 569.214844 545.234375 570.199219 543.839844 571.144531 542.425781 C 572.089844 541.007812 573 539.570312 573.878906 538.109375 C 574.753906 536.648438 575.59375 535.164062 576.394531 533.664062 C 577.199219 532.160156 577.964844 530.640625 578.691406 529.097656 C 579.421875 527.558594 580.109375 526.003906 580.761719 524.429688 C 581.414062 522.855469 582.027344 521.265625 582.601562 519.660156 C 583.175781 518.058594 583.710938 516.441406 584.203125 514.8125 C 584.699219 513.179688 585.152344 511.539062 585.566406 509.886719 C 585.980469 508.234375 586.355469 506.574219 586.6875 504.902344 C 587.019531 503.230469 587.308594 501.554688 587.558594 499.867188 C 587.808594 498.183594 588.019531 496.492188 588.183594 494.796875 C 588.351562 493.101562 588.476562 491.402344 588.5625 489.703125 C 588.644531 488 588.6875 486.296875 588.6875 484.59375 C 588.683594 482.890625 588.640625 481.191406 588.554688 479.488281 C 588.46875 477.789062 588.34375 476.089844 588.175781 474.394531 C 588.007812 472.699219 587.796875 471.011719 587.542969 469.328125 C 587.292969 467.640625 587 465.964844 586.667969 464.296875 C 586.332031 462.625 585.960938 460.964844 585.542969 459.3125 C 585.128906 457.660156 584.671875 456.019531 584.179688 454.390625 C 583.683594 452.761719 583.148438 451.144531 582.574219 449.542969 C 581.996094 447.941406 581.382812 446.351562 580.730469 444.777344 C 580.078125 443.207031 579.386719 441.648438 578.660156 440.109375 C 577.929688 438.570312 577.164062 437.050781 576.359375 435.550781 C 575.558594 434.046875 574.71875 432.566406 573.84375 431.105469 C 572.964844 429.644531 572.054688 428.207031 571.109375 426.792969 C 570.160156 425.375 569.179688 423.984375 568.167969 422.617188 C 567.152344 421.25 566.105469 419.90625 565.023438 418.589844 C 563.941406 417.273438 562.832031 415.984375 561.6875 414.722656 C 560.542969 413.460938 559.367188 412.230469 558.164062 411.023438 C 556.960938 409.820312 555.726562 408.644531 554.464844 407.503906 C 553.203125 406.359375 551.914062 405.246094 550.597656 404.167969 C 549.28125 403.085938 547.941406 402.039062 546.574219 401.023438 C 545.203125 400.007812 543.8125 399.027344 542.398438 398.082031 C 540.980469 397.132812 539.542969 396.222656 538.082031 395.347656 C 536.621094 394.472656 535.140625 393.632812 533.640625 392.828125 C 532.136719 392.023438 530.617188 391.257812 529.078125 390.53125 C 527.539062 389.800781 525.984375 389.109375 524.410156 388.457031 C 522.835938 387.804688 521.25 387.191406 519.648438 386.617188 C 518.042969 386.042969 516.425781 385.507812 514.796875 385.011719 C 513.167969 384.515625 511.527344 384.058594 509.875 383.644531 C 508.226562 383.230469 506.5625 382.855469 504.894531 382.523438 C 503.222656 382.1875 501.546875 381.894531 499.863281 381.644531 C 498.179688 381.394531 496.488281 381.183594 494.792969 381.015625 C 493.097656 380.847656 491.402344 380.71875 489.699219 380.632812 C 488 380.546875 486.296875 380.503906 484.59375 380.503906 Z M 484.59375 576.441406 C 483.089844 576.441406 481.589844 576.402344 480.089844 576.328125 C 478.585938 576.257812 477.089844 576.144531 475.59375 575.996094 C 474.097656 575.851562 472.605469 575.667969 471.117188 575.445312 C 469.632812 575.226562 468.152344 574.96875 466.675781 574.675781 C 465.203125 574.382812 463.734375 574.054688 462.277344 573.6875 C 460.820312 573.324219 459.371094 572.921875 457.933594 572.484375 C 456.496094 572.050781 455.066406 571.578125 453.652344 571.070312 C 452.238281 570.566406 450.835938 570.023438 449.445312 569.449219 C 448.058594 568.875 446.683594 568.265625 445.324219 567.621094 C 443.964844 566.980469 442.625 566.304688 441.296875 565.59375 C 439.972656 564.886719 438.664062 564.144531 437.375 563.375 C 436.085938 562.601562 434.816406 561.796875 433.566406 560.960938 C 432.316406 560.125 431.089844 559.261719 429.882812 558.367188 C 428.675781 557.46875 427.488281 556.546875 426.328125 555.59375 C 425.167969 554.640625 424.027344 553.65625 422.914062 552.648438 C 421.800781 551.636719 420.710938 550.601562 419.648438 549.539062 C 418.585938 548.476562 417.550781 547.386719 416.542969 546.273438 C 415.53125 545.160156 414.550781 544.023438 413.597656 542.859375 C 412.644531 541.699219 411.71875 540.515625 410.824219 539.308594 C 409.929688 538.101562 409.0625 536.871094 408.226562 535.621094 C 407.390625 534.371094 406.589844 533.101562 405.816406 531.8125 C 405.042969 530.523438 404.300781 529.214844 403.59375 527.890625 C 402.886719 526.566406 402.210938 525.222656 401.566406 523.863281 C 400.925781 522.503906 400.316406 521.132812 399.738281 519.742188 C 399.164062 518.355469 398.625 516.953125 398.117188 515.535156 C 397.613281 514.121094 397.140625 512.695312 396.703125 511.257812 C 396.265625 509.816406 395.867188 508.371094 395.5 506.910156 C 395.136719 505.453125 394.808594 503.988281 394.511719 502.511719 C 394.21875 501.039062 393.964844 499.558594 393.742188 498.070312 C 393.523438 496.585938 393.339844 495.09375 393.191406 493.597656 C 393.042969 492.101562 392.933594 490.601562 392.859375 489.101562 C 392.785156 487.601562 392.75 486.097656 392.75 484.59375 C 392.75 483.089844 392.785156 481.589844 392.859375 480.089844 C 392.933594 478.585938 393.042969 477.089844 393.191406 475.59375 C 393.339844 474.097656 393.523438 472.605469 393.742188 471.117188 C 393.964844 469.632812 394.21875 468.152344 394.511719 466.675781 C 394.808594 465.203125 395.136719 463.734375 395.5 462.277344 C 395.867188 460.820312 396.265625 459.371094 396.703125 457.933594 C 397.140625 456.496094 397.613281 455.066406 398.117188 453.652344 C 398.625 452.238281 399.164062 450.835938 399.738281 449.445312 C 400.316406 448.058594 400.925781 446.683594 401.566406 445.324219 C 402.210938 443.964844 402.886719 442.625 403.59375 441.296875 C 404.300781 439.972656 405.042969 438.664062 405.816406 437.375 C 406.589844 436.085938 407.394531 434.816406 408.226562 433.566406 C 409.0625 432.316406 409.929688 431.089844 410.824219 429.882812 C 411.71875 428.675781 412.644531 427.488281 413.597656 426.328125 C 414.550781 425.167969 415.53125 424.027344 416.542969 422.914062 C 417.550781 421.800781 418.585938 420.710938 419.648438 419.648438 C 420.710938 418.585938 421.800781 417.550781 422.914062 416.542969 C 424.027344 415.53125 425.167969 414.550781 426.328125 413.597656 C 427.488281 412.644531 428.675781 411.71875 429.882812 410.824219 C 431.089844 409.929688 432.316406 409.0625 433.566406 408.226562 C 434.816406 407.390625 436.085938 406.589844 437.375 405.816406 C 438.664062 405.042969 439.972656 404.300781 441.296875 403.59375 C 442.625 402.886719 443.964844 402.210938 445.324219 401.566406 C 446.683594 400.925781 448.058594 400.316406 449.445312 399.742188 C 450.835938 399.164062 452.238281 398.625 453.652344 398.117188 C 455.066406 397.613281 456.496094 397.140625 457.933594 396.703125 C 459.371094 396.265625 460.820312 395.867188 462.277344 395.5 C 463.734375 395.136719 465.203125 394.808594 466.675781 394.515625 C 468.152344 394.21875 469.632812 393.964844 471.117188 393.742188 C 472.605469 393.523438 474.097656 393.339844 475.59375 393.191406 C 477.089844 393.042969 478.585938 392.933594 480.089844 392.859375 C 481.589844 392.785156 483.089844 392.75 484.59375 392.75 C 486.097656 392.75 487.601562 392.785156 489.101562 392.859375 C 490.601562 392.933594 492.101562 393.042969 493.597656 393.191406 C 495.09375 393.339844 496.585938 393.523438 498.070312 393.742188 C 499.558594 393.964844 501.039062 394.21875 502.511719 394.515625 C 503.988281 394.808594 505.453125 395.136719 506.910156 395.5 C 508.371094 395.867188 509.816406 396.265625 511.257812 396.703125 C 512.695312 397.140625 514.121094 397.613281 515.535156 398.117188 C 516.953125 398.625 518.355469 399.164062 519.742188 399.742188 C 521.132812 400.316406 522.503906 400.925781 523.863281 401.566406 C 525.222656 402.210938 526.566406 402.886719 527.890625 403.59375 C 529.214844 404.300781 530.523438 405.042969 531.8125 405.816406 C 533.101562 406.589844 534.371094 407.394531 535.621094 408.226562 C 536.871094 409.0625 538.101562 409.929688 539.308594 410.824219 C 540.515625 411.71875 541.699219 412.644531 542.859375 413.597656 C 544.023438 414.550781 545.160156 415.53125 546.273438 416.542969 C 547.386719 417.550781 548.476562 418.585938 549.539062 419.648438 C 550.601562 420.710938 551.636719 421.800781 552.648438 422.914062 C 553.65625 424.027344 554.640625 425.167969 555.59375 426.328125 C 556.546875 427.488281 557.46875 428.675781 558.367188 429.882812 C 559.261719 431.089844 560.125 432.316406 560.960938 433.566406 C 561.796875 434.816406 562.601562 436.085938 563.375 437.375 C 564.144531 438.664062 564.886719 439.972656 565.59375 441.296875 C 566.304688 442.625 566.980469 443.964844 567.621094 445.324219 C 568.265625 446.683594 568.875 448.058594 569.449219 449.445312 C 570.023438 450.835938 570.566406 452.238281 571.070312 453.652344 C 571.578125 455.066406 572.050781 456.496094 572.484375 457.933594 C 572.921875 459.371094 573.324219 460.820312 573.6875 462.277344 C 574.054688 463.734375 574.382812 465.203125 574.675781 466.675781 C 574.96875 468.152344 575.226562 469.632812 575.445312 471.117188 C 575.667969 472.605469 575.851562 474.097656 575.996094 475.59375 C 576.144531 477.089844 576.257812 478.585938 576.328125 480.089844 C 576.402344 481.589844 576.441406 483.089844 576.441406 484.59375 C 576.4375 486.097656 576.398438 487.597656 576.324219 489.101562 C 576.25 490.601562 576.136719 492.097656 575.988281 493.59375 C 575.839844 495.089844 575.65625 496.578125 575.433594 498.066406 C 575.210938 499.550781 574.953125 501.03125 574.660156 502.503906 C 574.363281 503.980469 574.035156 505.445312 573.667969 506.902344 C 573.300781 508.359375 572.898438 509.808594 572.460938 511.246094 C 572.023438 512.683594 571.554688 514.109375 571.046875 515.523438 C 570.539062 516.9375 569.996094 518.339844 569.421875 519.726562 C 568.847656 521.113281 568.234375 522.488281 567.59375 523.84375 C 566.949219 525.203125 566.273438 526.546875 565.566406 527.871094 C 564.855469 529.195312 564.117188 530.5 563.34375 531.789062 C 562.570312 533.078125 561.765625 534.347656 560.929688 535.597656 C 560.09375 536.847656 559.230469 538.074219 558.335938 539.28125 C 557.4375 540.488281 556.515625 541.671875 555.5625 542.832031 C 554.609375 543.996094 553.625 545.132812 552.617188 546.246094 C 551.609375 547.359375 550.570312 548.445312 549.507812 549.507812 C 548.445312 550.570312 547.359375 551.609375 546.246094 552.617188 C 545.132812 553.625 543.996094 554.609375 542.832031 555.5625 C 541.671875 556.515625 540.488281 557.4375 539.28125 558.335938 C 538.074219 559.230469 536.847656 560.09375 535.597656 560.929688 C 534.347656 561.765625 533.078125 562.570312 531.789062 563.34375 C 530.5 564.117188 529.195312 564.855469 527.871094 565.566406 C 526.546875 566.273438 525.203125 566.949219 523.84375 567.59375 C 522.488281 568.238281 521.113281 568.847656 519.726562 569.421875 C 518.339844 569.996094 516.9375 570.539062 515.523438 571.046875 C 514.109375 571.554688 512.683594 572.023438 511.246094 572.460938 C 509.808594 572.898438 508.359375 573.300781 506.902344 573.667969 C 505.445312 574.035156 503.980469 574.363281 502.503906 574.660156 C 501.03125 574.953125 499.550781 575.210938 498.066406 575.433594 C 496.578125 575.65625 495.089844 575.839844 493.59375 575.988281 C 492.097656 576.136719 490.601562 576.25 489.101562 576.324219 C 487.597656 576.398438 486.097656 576.4375 484.59375 576.441406 Z M 374.378906 533.578125 L 251.917969 533.578125 C 251.316406 533.578125 250.71875 533.546875 250.117188 533.488281 C 249.519531 533.429688 248.925781 533.339844 248.335938 533.222656 C 247.746094 533.105469 247.164062 532.957031 246.589844 532.785156 C 246.011719 532.609375 245.449219 532.40625 244.890625 532.175781 C 244.335938 531.945312 243.792969 531.6875 243.261719 531.402344 C 242.734375 531.121094 242.21875 530.8125 241.71875 530.476562 C 241.21875 530.144531 240.734375 529.785156 240.269531 529.402344 C 239.804688 529.023438 239.359375 528.617188 238.9375 528.191406 C 238.511719 527.769531 238.105469 527.324219 237.726562 526.859375 C 237.34375 526.394531 236.984375 525.910156 236.652344 525.410156 C 236.316406 524.910156 236.007812 524.394531 235.722656 523.863281 C 235.441406 523.335938 235.183594 522.792969 234.953125 522.234375 C 234.722656 521.679688 234.519531 521.117188 234.34375 520.539062 C 234.171875 519.964844 234.023438 519.382812 233.90625 518.792969 C 233.789062 518.203125 233.699219 517.609375 233.640625 517.007812 C 233.582031 516.410156 233.550781 515.8125 233.550781 515.210938 L 233.550781 313.148438 L 515.210938 313.148438 L 515.210938 368.257812 C 515.210938 368.660156 515.25 369.058594 515.328125 369.453125 C 515.40625 369.84375 515.523438 370.226562 515.675781 370.601562 C 515.828125 370.972656 516.019531 371.324219 516.242188 371.660156 C 516.464844 371.992188 516.71875 372.300781 517.003906 372.585938 C 517.289062 372.871094 517.597656 373.125 517.929688 373.347656 C 518.265625 373.570312 518.617188 373.761719 518.988281 373.914062 C 519.359375 374.066406 519.742188 374.183594 520.136719 374.261719 C 520.53125 374.339844 520.929688 374.378906 521.332031 374.378906 C 521.734375 374.378906 522.132812 374.339844 522.527344 374.261719 C 522.921875 374.183594 523.304688 374.066406 523.675781 373.914062 C 524.046875 373.761719 524.398438 373.570312 524.734375 373.347656 C 525.070312 373.125 525.378906 372.871094 525.664062 372.585938 C 525.945312 372.300781 526.199219 371.992188 526.425781 371.660156 C 526.648438 371.324219 526.835938 370.972656 526.988281 370.601562 C 527.144531 370.226562 527.261719 369.84375 527.339844 369.453125 C 527.417969 369.058594 527.457031 368.660156 527.457031 368.257812 L 527.457031 282.535156 C 527.453125 281.53125 527.40625 280.53125 527.304688 279.535156 C 527.207031 278.535156 527.058594 277.546875 526.863281 276.5625 C 526.664062 275.582031 526.421875 274.609375 526.128906 273.652344 C 525.839844 272.691406 525.5 271.75 525.117188 270.824219 C 524.730469 269.898438 524.304688 268.992188 523.832031 268.109375 C 523.359375 267.226562 522.84375 266.367188 522.285156 265.535156 C 521.726562 264.699219 521.132812 263.894531 520.496094 263.121094 C 519.859375 262.347656 519.1875 261.605469 518.476562 260.894531 C 517.769531 260.1875 517.027344 259.515625 516.253906 258.878906 C 515.476562 258.242188 514.675781 257.648438 513.839844 257.089844 C 513.007812 256.53125 512.148438 256.015625 511.265625 255.542969 C 510.382812 255.070312 509.476562 254.644531 508.550781 254.257812 C 507.625 253.875 506.683594 253.535156 505.722656 253.246094 C 504.765625 252.953125 503.792969 252.710938 502.8125 252.511719 C 501.828125 252.316406 500.835938 252.167969 499.839844 252.070312 C 498.84375 251.96875 497.84375 251.921875 496.839844 251.917969 L 478.472656 251.917969 L 478.472656 239.671875 C 478.472656 239.070312 478.441406 238.472656 478.382812 237.871094 C 478.324219 237.273438 478.234375 236.679688 478.117188 236.089844 C 478 235.5 477.855469 234.917969 477.679688 234.339844 C 477.507812 233.765625 477.304688 233.199219 477.074219 232.644531 C 476.84375 232.085938 476.585938 231.542969 476.300781 231.011719 C 476.019531 230.484375 475.710938 229.96875 475.375 229.46875 C 475.042969 228.96875 474.683594 228.484375 474.300781 228.019531 C 473.921875 227.554688 473.515625 227.109375 473.089844 226.683594 C 472.664062 226.257812 472.222656 225.855469 471.753906 225.472656 C 471.289062 225.089844 470.808594 224.734375 470.308594 224.398438 C 469.808594 224.066406 469.292969 223.757812 468.761719 223.472656 C 468.230469 223.1875 467.6875 222.933594 467.132812 222.703125 C 466.574219 222.472656 466.011719 222.269531 465.433594 222.09375 C 464.859375 221.921875 464.277344 221.773438 463.6875 221.65625 C 463.097656 221.539062 462.5 221.449219 461.902344 221.390625 C 461.304688 221.332031 460.703125 221.304688 460.101562 221.304688 C 459.5 221.304688 458.902344 221.332031 458.300781 221.390625 C 457.703125 221.449219 457.109375 221.539062 456.519531 221.65625 C 455.929688 221.773438 455.347656 221.921875 454.769531 222.09375 C 454.195312 222.269531 453.628906 222.472656 453.074219 222.703125 C 452.515625 222.933594 451.972656 223.1875 451.441406 223.472656 C 450.914062 223.757812 450.398438 224.066406 449.898438 224.398438 C 449.398438 224.734375 448.914062 225.089844 448.449219 225.472656 C 447.984375 225.855469 447.539062 226.257812 447.113281 226.683594 C 446.6875 227.109375 446.285156 227.554688 445.902344 228.019531 C 445.519531 228.484375 445.164062 228.96875 444.828125 229.46875 C 444.496094 229.96875 444.1875 230.484375 443.902344 231.011719 C 443.617188 231.542969 443.363281 232.085938 443.132812 232.644531 C 442.902344 233.199219 442.699219 233.765625 442.523438 234.339844 C 442.347656 234.917969 442.203125 235.5 442.085938 236.089844 C 441.96875 236.679688 441.878906 237.273438 441.820312 237.871094 C 441.761719 238.472656 441.734375 239.070312 441.734375 239.671875 L 441.734375 251.917969 L 392.75 251.917969 L 392.75 239.671875 C 392.75 239.070312 392.71875 238.472656 392.660156 237.871094 C 392.601562 237.273438 392.511719 236.679688 392.394531 236.089844 C 392.277344 235.5 392.132812 234.917969 391.957031 234.339844 C 391.785156 233.765625 391.582031 233.199219 391.351562 232.644531 C 391.121094 232.085938 390.863281 231.542969 390.578125 231.011719 C 390.296875 230.484375 389.988281 229.96875 389.652344 229.46875 C 389.320312 228.96875 388.960938 228.484375 388.578125 228.019531 C 388.199219 227.554688 387.792969 227.109375 387.367188 226.683594 C 386.941406 226.257812 386.5 225.855469 386.03125 225.472656 C 385.566406 225.089844 385.085938 224.734375 384.585938 224.398438 C 384.085938 224.066406 383.570312 223.757812 383.039062 223.472656 C 382.507812 223.1875 381.964844 222.933594 381.410156 222.703125 C 380.851562 222.472656 380.289062 222.269531 379.710938 222.09375 C 379.136719 221.921875 378.554688 221.773438 377.964844 221.65625 C 377.375 221.539062 376.777344 221.449219 376.179688 221.390625 C 375.582031 221.332031 374.980469 221.304688 374.378906 221.304688 C 373.777344 221.304688 373.179688 221.332031 372.578125 221.390625 C 371.980469 221.449219 371.386719 221.539062 370.796875 221.65625 C 370.207031 221.773438 369.625 221.921875 369.046875 222.09375 C 368.472656 222.269531 367.90625 222.472656 367.351562 222.703125 C 366.792969 222.933594 366.25 223.1875 365.71875 223.472656 C 365.191406 223.757812 364.675781 224.066406 364.175781 224.398438 C 363.675781 224.734375 363.191406 225.089844 362.726562 225.472656 C 362.261719 225.855469 361.816406 226.257812 361.390625 226.683594 C 360.964844 227.109375 360.5625 227.554688 360.179688 228.019531 C 359.796875 228.484375 359.441406 228.96875 359.105469 229.46875 C 358.773438 229.96875 358.464844 230.484375 358.179688 231.011719 C 357.894531 231.542969 357.640625 232.085938 357.410156 232.644531 C 357.179688 233.199219 356.976562 233.765625 356.800781 234.339844 C 356.625 234.917969 356.480469 235.5 356.363281 236.089844 C 356.246094 236.679688 356.15625 237.273438 356.097656 237.871094 C 356.039062 238.472656 356.011719 239.070312 356.011719 239.671875 L 356.011719 251.917969 L 307.027344 251.917969 L 307.027344 239.671875 C 307.027344 239.070312 306.996094 238.472656 306.9375 237.871094 C 306.878906 237.273438 306.789062 236.679688 306.671875 236.089844 C 306.554688 235.5 306.410156 234.917969 306.234375 234.339844 C 306.0625 233.765625 305.859375 233.199219 305.628906 232.644531 C 305.398438 232.085938 305.140625 231.542969 304.855469 231.011719 C 304.574219 230.484375 304.265625 229.96875 303.929688 229.46875 C 303.597656 228.96875 303.238281 228.484375 302.855469 228.019531 C 302.476562 227.554688 302.070312 227.109375 301.644531 226.683594 C 301.21875 226.257812 300.777344 225.855469 300.308594 225.472656 C 299.84375 225.089844 299.363281 224.734375 298.863281 224.398438 C 298.363281 224.066406 297.847656 223.757812 297.316406 223.472656 C 296.785156 223.1875 296.242188 222.933594 295.6875 222.703125 C 295.128906 222.472656 294.566406 222.269531 293.988281 222.09375 C 293.414062 221.921875 292.832031 221.773438 292.242188 221.65625 C 291.652344 221.539062 291.054688 221.449219 290.457031 221.390625 C 289.859375 221.332031 289.257812 221.304688 288.65625 221.304688 C 288.054688 221.304688 287.457031 221.332031 286.855469 221.390625 C 286.257812 221.449219 285.664062 221.539062 285.074219 221.65625 C 284.484375 221.773438 283.902344 221.921875 283.324219 222.09375 C 282.75 222.269531 282.183594 222.472656 281.628906 222.703125 C 281.070312 222.933594 280.527344 223.1875 279.996094 223.472656 C 279.46875 223.757812 278.953125 224.066406 278.453125 224.398438 C 277.953125 224.734375 277.46875 225.089844 277.003906 225.472656 C 276.539062 225.855469 276.09375 226.257812 275.667969 226.683594 C 275.242188 227.109375 274.839844 227.554688 274.457031 228.019531 C 274.074219 228.484375 273.71875 228.96875 273.382812 229.46875 C 273.050781 229.96875 272.742188 230.484375 272.457031 231.011719 C 272.171875 231.542969 271.917969 232.085938 271.6875 232.644531 C 271.457031 233.199219 271.253906 233.765625 271.078125 234.339844 C 270.902344 234.917969 270.757812 235.5 270.640625 236.089844 C 270.523438 236.679688 270.433594 237.273438 270.375 237.871094 C 270.316406 238.472656 270.289062 239.070312 270.289062 239.671875 L 270.289062 251.917969 L 251.917969 251.917969 C 250.917969 251.921875 249.917969 251.96875 248.917969 252.070312 C 247.921875 252.167969 246.929688 252.316406 245.949219 252.511719 C 244.964844 252.710938 243.996094 252.953125 243.035156 253.246094 C 242.078125 253.535156 241.132812 253.875 240.207031 254.257812 C 239.28125 254.644531 238.378906 255.070312 237.492188 255.542969 C 236.609375 256.015625 235.75 256.53125 234.917969 257.089844 C 234.085938 257.648438 233.28125 258.242188 232.507812 258.878906 C 231.730469 259.515625 230.988281 260.1875 230.28125 260.894531 C 229.574219 261.605469 228.898438 262.347656 228.265625 263.121094 C 227.628906 263.894531 227.03125 264.699219 226.472656 265.535156 C 225.917969 266.367188 225.402344 267.226562 224.929688 268.109375 C 224.457031 268.992188 224.027344 269.898438 223.644531 270.824219 C 223.257812 271.75 222.921875 272.691406 222.628906 273.652344 C 222.339844 274.609375 222.09375 275.582031 221.898438 276.5625 C 221.703125 277.546875 221.554688 278.535156 221.453125 279.535156 C 221.355469 280.53125 221.304688 281.53125 221.304688 282.535156 L 221.304688 515.210938 C 221.304688 516.210938 221.355469 517.210938 221.453125 518.210938 C 221.554688 519.207031 221.703125 520.195312 221.898438 521.179688 C 222.09375 522.164062 222.339844 523.132812 222.628906 524.09375 C 222.921875 525.050781 223.257812 525.996094 223.644531 526.921875 C 224.027344 527.847656 224.457031 528.75 224.929688 529.632812 C 225.402344 530.519531 225.917969 531.378906 226.472656 532.210938 C 227.03125 533.042969 227.628906 533.847656 228.265625 534.621094 C 228.898438 535.398438 229.574219 536.140625 230.28125 536.847656 C 230.988281 537.554688 231.730469 538.230469 232.507812 538.863281 C 233.28125 539.5 234.085938 540.097656 234.917969 540.65625 C 235.75 541.210938 236.609375 541.726562 237.492188 542.199219 C 238.378906 542.671875 239.28125 543.101562 240.207031 543.484375 C 241.132812 543.871094 242.078125 544.207031 243.035156 544.5 C 243.996094 544.789062 244.964844 545.035156 245.949219 545.230469 C 246.929688 545.425781 247.921875 545.574219 248.917969 545.675781 C 249.917969 545.773438 250.917969 545.824219 251.917969 545.824219 L 374.378906 545.824219 C 374.78125 545.824219 375.179688 545.785156 375.574219 545.707031 C 375.96875 545.628906 376.351562 545.511719 376.722656 545.359375 C 377.09375 545.203125 377.445312 545.015625 377.78125 544.792969 C 378.117188 544.570312 378.425781 544.316406 378.710938 544.03125 C 378.992188 543.746094 379.246094 543.4375 379.472656 543.105469 C 379.695312 542.769531 379.882812 542.417969 380.035156 542.046875 C 380.191406 541.671875 380.308594 541.289062 380.386719 540.898438 C 380.464844 540.503906 380.503906 540.105469 380.503906 539.703125 C 380.503906 539.300781 380.464844 538.902344 380.386719 538.507812 C 380.308594 538.113281 380.191406 537.730469 380.035156 537.359375 C 379.882812 536.988281 379.695312 536.632812 379.472656 536.300781 C 379.246094 535.964844 378.992188 535.65625 378.710938 535.371094 C 378.425781 535.089844 378.117188 534.835938 377.78125 534.609375 C 377.445312 534.386719 377.09375 534.199219 376.722656 534.046875 C 376.351562 533.890625 375.96875 533.773438 375.574219 533.695312 C 375.179688 533.617188 374.78125 533.578125 374.378906 533.578125 Z M 453.980469 239.671875 C 453.980469 239.269531 454.019531 238.871094 454.097656 238.476562 C 454.175781 238.082031 454.292969 237.699219 454.445312 237.328125 C 454.597656 236.957031 454.789062 236.605469 455.011719 236.269531 C 455.234375 235.9375 455.488281 235.628906 455.773438 235.34375 C 456.058594 235.058594 456.367188 234.804688 456.699219 234.582031 C 457.035156 234.359375 457.386719 234.167969 457.757812 234.015625 C 458.128906 233.863281 458.511719 233.746094 458.90625 233.667969 C 459.300781 233.589844 459.699219 233.550781 460.101562 233.550781 C 460.503906 233.550781 460.902344 233.589844 461.296875 233.667969 C 461.691406 233.746094 462.074219 233.863281 462.445312 234.015625 C 462.816406 234.167969 463.167969 234.359375 463.503906 234.582031 C 463.839844 234.804688 464.148438 235.058594 464.433594 235.34375 C 464.714844 235.628906 464.96875 235.9375 465.195312 236.269531 C 465.417969 236.605469 465.605469 236.957031 465.757812 237.328125 C 465.914062 237.699219 466.03125 238.082031 466.109375 238.476562 C 466.1875 238.871094 466.226562 239.269531 466.226562 239.671875 L 466.226562 270.289062 C 466.226562 270.691406 466.1875 271.089844 466.109375 271.484375 C 466.03125 271.875 465.914062 272.257812 465.757812 272.632812 C 465.605469 273.003906 465.417969 273.355469 465.195312 273.691406 C 464.96875 274.023438 464.714844 274.332031 464.433594 274.617188 C 464.148438 274.902344 463.839844 275.15625 463.503906 275.378906 C 463.167969 275.601562 462.816406 275.792969 462.445312 275.945312 C 462.074219 276.097656 461.691406 276.214844 461.296875 276.292969 C 460.902344 276.371094 460.503906 276.410156 460.101562 276.410156 C 459.699219 276.410156 459.300781 276.371094 458.90625 276.292969 C 458.511719 276.214844 458.128906 276.097656 457.757812 275.945312 C 457.386719 275.792969 457.035156 275.601562 456.699219 275.378906 C 456.367188 275.15625 456.058594 274.902344 455.773438 274.617188 C 455.488281 274.332031 455.234375 274.023438 455.011719 273.691406 C 454.789062 273.355469 454.597656 273.003906 454.445312 272.632812 C 454.292969 272.257812 454.175781 271.875 454.097656 271.484375 C 454.019531 271.089844 453.980469 270.691406 453.980469 270.289062 Z M 368.257812 239.671875 C 368.257812 239.269531 368.296875 238.871094 368.375 238.476562 C 368.453125 238.082031 368.570312 237.699219 368.722656 237.328125 C 368.875 236.957031 369.066406 236.605469 369.289062 236.269531 C 369.511719 235.9375 369.765625 235.628906 370.050781 235.34375 C 370.335938 235.058594 370.644531 234.804688 370.976562 234.582031 C 371.3125 234.359375 371.664062 234.167969 372.035156 234.015625 C 372.40625 233.863281 372.789062 233.746094 373.183594 233.667969 C 373.578125 233.589844 373.976562 233.550781 374.378906 233.550781 C 374.78125 233.550781 375.179688 233.589844 375.574219 233.667969 C 375.96875 233.746094 376.351562 233.863281 376.722656 234.015625 C 377.09375 234.167969 377.445312 234.359375 377.78125 234.582031 C 378.117188 234.804688 378.425781 235.058594 378.710938 235.34375 C 378.992188 235.628906 379.246094 235.9375 379.472656 236.269531 C 379.695312 236.605469 379.882812 236.957031 380.035156 237.328125 C 380.191406 237.699219 380.308594 238.082031 380.386719 238.476562 C 380.464844 238.871094 380.503906 239.269531 380.503906 239.671875 L 380.503906 270.289062 C 380.503906 270.691406 380.464844 271.089844 380.386719 271.484375 C 380.308594 271.875 380.191406 272.257812 380.035156 272.632812 C 379.882812 273.003906 379.695312 273.355469 379.472656 273.691406 C 379.246094 274.023438 378.992188 274.332031 378.710938 274.617188 C 378.425781 274.902344 378.117188 275.15625 377.78125 275.378906 C 377.445312 275.601562 377.09375 275.792969 376.722656 275.945312 C 376.351562 276.097656 375.96875 276.214844 375.574219 276.292969 C 375.179688 276.371094 374.78125 276.410156 374.378906 276.410156 C 373.976562 276.410156 373.578125 276.371094 373.183594 276.292969 C 372.789062 276.214844 372.40625 276.097656 372.035156 275.945312 C 371.664062 275.792969 371.3125 275.601562 370.976562 275.378906 C 370.644531 275.15625 370.335938 274.902344 370.050781 274.617188 C 369.765625 274.332031 369.511719 274.023438 369.289062 273.691406 C 369.066406 273.355469 368.875 273.003906 368.722656 272.632812 C 368.570312 272.257812 368.453125 271.875 368.375 271.484375 C 368.296875 271.089844 368.257812 270.691406 368.257812 270.289062 Z M 282.535156 239.671875 C 282.535156 239.269531 282.574219 238.871094 282.652344 238.476562 C 282.730469 238.082031 282.847656 237.699219 283 237.328125 C 283.152344 236.957031 283.34375 236.605469 283.566406 236.269531 C 283.789062 235.9375 284.042969 235.628906 284.328125 235.34375 C 284.613281 235.058594 284.921875 234.804688 285.253906 234.582031 C 285.589844 234.359375 285.941406 234.167969 286.3125 234.015625 C 286.683594 233.863281 287.066406 233.746094 287.460938 233.667969 C 287.855469 233.589844 288.253906 233.550781 288.65625 233.550781 C 289.058594 233.550781 289.457031 233.589844 289.851562 233.667969 C 290.246094 233.746094 290.628906 233.863281 291 234.015625 C 291.371094 234.167969 291.722656 234.359375 292.058594 234.582031 C 292.394531 234.804688 292.703125 235.058594 292.988281 235.34375 C 293.269531 235.628906 293.523438 235.9375 293.75 236.269531 C 293.972656 236.605469 294.160156 236.957031 294.3125 237.328125 C 294.46875 237.699219 294.585938 238.082031 294.664062 238.476562 C 294.742188 238.871094 294.78125 239.269531 294.78125 239.671875 L 294.78125 270.289062 C 294.78125 270.691406 294.742188 271.089844 294.664062 271.484375 C 294.585938 271.875 294.46875 272.257812 294.3125 272.632812 C 294.160156 273.003906 293.972656 273.355469 293.75 273.691406 C 293.523438 274.023438 293.269531 274.332031 292.988281 274.617188 C 292.703125 274.902344 292.394531 275.15625 292.058594 275.378906 C 291.722656 275.601562 291.371094 275.792969 291 275.945312 C 290.628906 276.097656 290.246094 276.214844 289.851562 276.292969 C 289.457031 276.371094 289.058594 276.410156 288.65625 276.410156 C 288.253906 276.410156 287.855469 276.371094 287.460938 276.292969 C 287.066406 276.214844 286.683594 276.097656 286.3125 275.945312 C 285.941406 275.792969 285.589844 275.601562 285.253906 275.378906 C 284.921875 275.15625 284.613281 274.902344 284.328125 274.617188 C 284.042969 274.332031 283.789062 274.023438 283.566406 273.691406 C 283.34375 273.355469 283.152344 273.003906 283 272.632812 C 282.847656 272.257812 282.730469 271.875 282.652344 271.484375 C 282.574219 271.089844 282.535156 270.691406 282.535156 270.289062 Z M 251.917969 264.164062 L 270.289062 264.164062 L 270.289062 270.289062 C 270.289062 270.890625 270.316406 271.488281 270.375 272.089844 C 270.433594 272.6875 270.523438 273.28125 270.640625 273.871094 C 270.757812 274.460938 270.902344 275.042969 271.078125 275.621094 C 271.253906 276.195312 271.457031 276.761719 271.6875 277.316406 C 271.917969 277.875 272.171875 278.417969 272.457031 278.945312 C 272.742188 279.476562 273.050781 279.992188 273.382812 280.492188 C 273.71875 280.992188 274.074219 281.476562 274.457031 281.941406 C 274.839844 282.40625 275.242188 282.851562 275.667969 283.277344 C 276.09375 283.703125 276.539062 284.105469 277.003906 284.488281 C 277.46875 284.871094 277.953125 285.226562 278.453125 285.5625 C 278.953125 285.894531 279.46875 286.203125 279.996094 286.488281 C 280.527344 286.773438 281.070312 287.027344 281.628906 287.257812 C 282.183594 287.488281 282.75 287.691406 283.324219 287.867188 C 283.902344 288.039062 284.484375 288.1875 285.074219 288.304688 C 285.664062 288.421875 286.257812 288.507812 286.855469 288.570312 C 287.457031 288.628906 288.054688 288.65625 288.65625 288.65625 C 289.257812 288.65625 289.859375 288.628906 290.457031 288.570312 C 291.054688 288.507812 291.652344 288.421875 292.242188 288.304688 C 292.832031 288.1875 293.414062 288.039062 293.988281 287.867188 C 294.566406 287.691406 295.128906 287.488281 295.6875 287.257812 C 296.242188 287.027344 296.785156 286.773438 297.316406 286.488281 C 297.847656 286.203125 298.363281 285.894531 298.863281 285.5625 C 299.363281 285.226562 299.84375 284.871094 300.308594 284.488281 C 300.777344 284.105469 301.21875 283.703125 301.644531 283.277344 C 302.070312 282.851562 302.476562 282.40625 302.855469 281.941406 C 303.238281 281.476562 303.597656 280.992188 303.929688 280.492188 C 304.265625 279.992188 304.574219 279.476562 304.855469 278.945312 C 305.140625 278.417969 305.398438 277.875 305.628906 277.316406 C 305.859375 276.761719 306.0625 276.195312 306.234375 275.621094 C 306.410156 275.042969 306.554688 274.460938 306.671875 273.871094 C 306.789062 273.28125 306.878906 272.6875 306.9375 272.089844 C 306.996094 271.488281 307.027344 270.890625 307.027344 270.289062 L 307.027344 264.164062 L 356.011719 264.164062 L 356.011719 270.289062 C 356.011719 270.890625 356.039062 271.488281 356.097656 272.089844 C 356.15625 272.6875 356.246094 273.28125 356.363281 273.871094 C 356.480469 274.460938 356.625 275.042969 356.800781 275.621094 C 356.976562 276.195312 357.179688 276.761719 357.410156 277.316406 C 357.640625 277.875 357.894531 278.417969 358.179688 278.945312 C 358.464844 279.476562 358.773438 279.992188 359.105469 280.492188 C 359.441406 280.992188 359.796875 281.476562 360.179688 281.941406 C 360.5625 282.40625 360.964844 282.851562 361.390625 283.277344 C 361.816406 283.703125 362.261719 284.105469 362.726562 284.488281 C 363.191406 284.871094 363.675781 285.226562 364.175781 285.5625 C 364.675781 285.894531 365.191406 286.203125 365.71875 286.488281 C 366.25 286.773438 366.792969 287.027344 367.351562 287.257812 C 367.90625 287.488281 368.472656 287.691406 369.046875 287.867188 C 369.625 288.039062 370.207031 288.1875 370.796875 288.304688 C 371.386719 288.421875 371.980469 288.507812 372.578125 288.570312 C 373.179688 288.628906 373.777344 288.65625 374.378906 288.65625 C 374.980469 288.65625 375.582031 288.628906 376.179688 288.570312 C 376.777344 288.507812 377.375 288.421875 377.964844 288.304688 C 378.554688 288.1875 379.136719 288.039062 379.710938 287.867188 C 380.289062 287.691406 380.851562 287.488281 381.410156 287.257812 C 381.964844 287.027344 382.507812 286.773438 383.039062 286.488281 C 383.570312 286.203125 384.085938 285.894531 384.585938 285.5625 C 385.085938 285.226562 385.566406 284.871094 386.03125 284.488281 C 386.5 284.105469 386.941406 283.703125 387.367188 283.277344 C 387.792969 282.851562 388.199219 282.40625 388.578125 281.941406 C 388.960938 281.476562 389.320312 280.992188 389.652344 280.492188 C 389.988281 279.992188 390.296875 279.476562 390.578125 278.945312 C 390.863281 278.417969 391.121094 277.875 391.351562 277.316406 C 391.582031 276.761719 391.785156 276.195312 391.957031 275.621094 C 392.132812 275.042969 392.277344 274.460938 392.394531 273.871094 C 392.511719 273.28125 392.601562 272.6875 392.660156 272.089844 C 392.71875 271.488281 392.75 270.890625 392.75 270.289062 L 392.75 264.164062 L 441.734375 264.164062 L 441.734375 270.289062 C 441.734375 270.890625 441.761719 271.488281 441.820312 272.089844 C 441.878906 272.6875 441.96875 273.28125 442.085938 273.871094 C 442.203125 274.460938 442.347656 275.042969 442.523438 275.621094 C 442.699219 276.195312 442.902344 276.761719 443.132812 277.316406 C 443.363281 277.875 443.617188 278.417969 443.902344 278.945312 C 444.1875 279.476562 444.496094 279.992188 444.828125 280.492188 C 445.164062 280.992188 445.519531 281.476562 445.902344 281.941406 C 446.285156 282.40625 446.6875 282.851562 447.113281 283.277344 C 447.539062 283.703125 447.984375 284.105469 448.449219 284.488281 C 448.914062 284.871094 449.398438 285.226562 449.898438 285.5625 C 450.398438 285.894531 450.914062 286.203125 451.441406 286.488281 C 451.972656 286.773438 452.515625 287.027344 453.074219 287.257812 C 453.628906 287.488281 454.195312 287.691406 454.769531 287.867188 C 455.347656 288.039062 455.929688 288.1875 456.519531 288.304688 C 457.109375 288.421875 457.703125 288.507812 458.300781 288.570312 C 458.902344 288.628906 459.5 288.65625 460.101562 288.65625 C 460.703125 288.65625 461.304688 288.628906 461.902344 288.570312 C 462.5 288.507812 463.097656 288.421875 463.6875 288.304688 C 464.277344 288.1875 464.859375 288.039062 465.433594 287.867188 C 466.011719 287.691406 466.574219 287.488281 467.132812 287.257812 C 467.6875 287.027344 468.230469 286.773438 468.761719 286.488281 C 469.292969 286.203125 469.808594 285.894531 470.308594 285.5625 C 470.808594 285.226562 471.289062 284.871094 471.753906 284.488281 C 472.222656 284.105469 472.664062 283.703125 473.089844 283.277344 C 473.515625 282.851562 473.921875 282.40625 474.300781 281.941406 C 474.683594 281.476562 475.042969 280.992188 475.375 280.492188 C 475.710938 279.992188 476.019531 279.476562 476.300781 278.945312 C 476.585938 278.417969 476.84375 277.875 477.074219 277.316406 C 477.304688 276.761719 477.507812 276.195312 477.679688 275.621094 C 477.855469 275.042969 478 274.460938 478.117188 273.871094 C 478.234375 273.28125 478.324219 272.6875 478.382812 272.089844 C 478.441406 271.488281 478.472656 270.890625 478.472656 270.289062 L 478.472656 264.164062 L 496.839844 264.164062 C 497.441406 264.164062 498.042969 264.195312 498.640625 264.253906 C 499.238281 264.316406 499.832031 264.402344 500.421875 264.519531 C 501.011719 264.640625 501.59375 264.785156 502.171875 264.960938 C 502.746094 265.136719 503.3125 265.339844 503.867188 265.570312 C 504.421875 265.800781 504.964844 266.054688 505.496094 266.339844 C 506.027344 266.625 506.542969 266.933594 507.042969 267.265625 C 507.542969 267.601562 508.023438 267.960938 508.488281 268.339844 C 508.953125 268.722656 509.398438 269.125 509.824219 269.550781 C 510.25 269.976562 510.652344 270.421875 511.035156 270.886719 C 511.414062 271.351562 511.773438 271.832031 512.109375 272.332031 C 512.441406 272.832031 512.75 273.347656 513.035156 273.878906 C 513.320312 274.410156 513.574219 274.953125 513.804688 275.507812 C 514.035156 276.0625 514.238281 276.628906 514.414062 277.203125 C 514.589844 277.78125 514.734375 278.363281 514.855469 278.953125 C 514.972656 279.542969 515.058594 280.136719 515.121094 280.734375 C 515.179688 281.332031 515.210938 281.933594 515.210938 282.535156 L 515.210938 300.902344 L 233.550781 300.902344 L 233.550781 282.535156 C 233.550781 281.933594 233.582031 281.332031 233.640625 280.734375 C 233.699219 280.136719 233.789062 279.542969 233.90625 278.953125 C 234.023438 278.363281 234.171875 277.78125 234.34375 277.203125 C 234.519531 276.628906 234.722656 276.0625 234.953125 275.507812 C 235.183594 274.953125 235.441406 274.410156 235.722656 273.878906 C 236.007812 273.347656 236.316406 272.832031 236.652344 272.332031 C 236.984375 271.832031 237.34375 271.351562 237.726562 270.886719 C 238.105469 270.421875 238.511719 269.976562 238.9375 269.550781 C 239.359375 269.125 239.804688 268.722656 240.269531 268.339844 C 240.734375 267.960938 241.21875 267.601562 241.71875 267.265625 C 242.21875 266.933594 242.734375 266.625 243.261719 266.339844 C 243.792969 266.054688 244.335938 265.800781 244.890625 265.570312 C 245.449219 265.339844 246.011719 265.136719 246.589844 264.960938 C 247.164062 264.785156 247.746094 264.640625 248.335938 264.519531 C 248.925781 264.402344 249.519531 264.316406 250.117188 264.253906 C 250.71875 264.195312 251.316406 264.164062 251.917969 264.164062 Z M 478.472656 362.132812 L 478.472656 349.886719 L 453.980469 349.886719 L 453.980469 367.757812 C 453.980469 368.160156 453.941406 368.558594 453.863281 368.953125 C 453.785156 369.347656 453.667969 369.730469 453.511719 370.101562 C 453.359375 370.472656 453.171875 370.824219 452.949219 371.160156 C 452.722656 371.492188 452.46875 371.804688 452.1875 372.085938 C 451.902344 372.371094 451.59375 372.625 451.257812 372.847656 C 450.921875 373.070312 450.570312 373.261719 450.199219 373.414062 C 449.828125 373.566406 449.445312 373.683594 449.050781 373.761719 C 448.65625 373.839844 448.257812 373.878906 447.855469 373.878906 C 447.453125 373.878906 447.054688 373.839844 446.660156 373.761719 C 446.265625 373.683594 445.882812 373.566406 445.511719 373.414062 C 445.140625 373.261719 444.789062 373.070312 444.453125 372.847656 C 444.121094 372.625 443.8125 372.371094 443.527344 372.085938 C 443.242188 371.804688 442.988281 371.492188 442.765625 371.160156 C 442.542969 370.824219 442.351562 370.472656 442.199219 370.101562 C 442.046875 369.730469 441.929688 369.347656 441.851562 368.953125 C 441.773438 368.558594 441.734375 368.160156 441.734375 367.757812 L 441.734375 343.765625 C 441.734375 343.363281 441.773438 342.964844 441.851562 342.570312 C 441.929688 342.175781 442.046875 341.792969 442.199219 341.421875 C 442.351562 341.050781 442.542969 340.695312 442.765625 340.363281 C 442.988281 340.027344 443.242188 339.71875 443.527344 339.433594 C 443.808594 339.148438 444.121094 338.894531 444.453125 338.671875 C 444.789062 338.449219 445.140625 338.261719 445.511719 338.105469 C 445.882812 337.953125 446.265625 337.835938 446.660156 337.757812 C 447.054688 337.679688 447.453125 337.640625 447.855469 337.640625 L 484.59375 337.640625 C 484.996094 337.640625 485.394531 337.679688 485.789062 337.757812 C 486.183594 337.835938 486.566406 337.953125 486.9375 338.105469 C 487.308594 338.261719 487.664062 338.449219 487.996094 338.671875 C 488.332031 338.894531 488.640625 339.148438 488.925781 339.433594 C 489.210938 339.71875 489.460938 340.027344 489.6875 340.363281 C 489.910156 340.695312 490.097656 341.050781 490.253906 341.421875 C 490.40625 341.792969 490.523438 342.175781 490.601562 342.570312 C 490.679688 342.964844 490.71875 343.363281 490.71875 343.765625 L 490.71875 362.132812 C 490.71875 362.535156 490.679688 362.933594 490.601562 363.328125 C 490.523438 363.722656 490.40625 364.105469 490.25 364.476562 C 490.097656 364.847656 489.910156 365.199219 489.6875 365.535156 C 489.460938 365.871094 489.207031 366.179688 488.925781 366.464844 C 488.640625 366.746094 488.332031 367 487.996094 367.226562 C 487.660156 367.449219 487.308594 367.636719 486.9375 367.789062 C 486.566406 367.945312 486.183594 368.0625 485.789062 368.140625 C 485.394531 368.21875 484.996094 368.257812 484.59375 368.257812 C 484.191406 368.257812 483.792969 368.21875 483.398438 368.140625 C 483.003906 368.0625 482.621094 367.945312 482.25 367.789062 C 481.878906 367.636719 481.527344 367.449219 481.191406 367.226562 C 480.859375 367 480.550781 366.746094 480.265625 366.464844 C 479.980469 366.179688 479.726562 365.871094 479.503906 365.535156 C 479.28125 365.199219 479.089844 364.847656 478.9375 364.476562 C 478.785156 364.105469 478.667969 363.722656 478.589844 363.328125 C 478.511719 362.933594 478.472656 362.535156 478.472656 362.132812 Z M 484.59375 404.996094 C 483.292969 404.996094 481.988281 405.027344 480.6875 405.089844 C 479.386719 405.15625 478.089844 405.25 476.792969 405.378906 C 475.496094 405.507812 474.203125 405.664062 472.914062 405.855469 C 471.625 406.046875 470.34375 406.269531 469.066406 406.523438 C 467.789062 406.777344 466.515625 407.0625 465.253906 407.378906 C 463.988281 407.695312 462.734375 408.042969 461.488281 408.421875 C 460.242188 408.800781 459.003906 409.210938 457.777344 409.648438 C 456.550781 410.085938 455.335938 410.554688 454.132812 411.054688 C 452.929688 411.550781 451.738281 412.082031 450.5625 412.636719 C 449.382812 413.195312 448.21875 413.78125 447.070312 414.394531 C 445.921875 415.007812 444.789062 415.648438 443.671875 416.320312 C 442.554688 416.988281 441.453125 417.6875 440.371094 418.410156 C 439.289062 419.132812 438.222656 419.882812 437.175781 420.660156 C 436.128906 421.4375 435.105469 422.238281 434.097656 423.0625 C 433.089844 423.890625 432.105469 424.742188 431.140625 425.613281 C 430.171875 426.488281 429.230469 427.386719 428.308594 428.308594 C 427.386719 429.230469 426.488281 430.171875 425.613281 431.140625 C 424.742188 432.105469 423.890625 433.089844 423.0625 434.097656 C 422.238281 435.105469 421.4375 436.128906 420.660156 437.175781 C 419.882812 438.222656 419.132812 439.289062 418.410156 440.371094 C 417.6875 441.453125 416.988281 442.554688 416.320312 443.671875 C 415.648438 444.789062 415.007812 445.921875 414.394531 447.070312 C 413.78125 448.21875 413.195312 449.382812 412.636719 450.5625 C 412.082031 451.738281 411.550781 452.929688 411.054688 454.132812 C 410.554688 455.335938 410.085938 456.550781 409.648438 457.777344 C 409.210938 459.003906 408.800781 460.242188 408.421875 461.488281 C 408.042969 462.734375 407.695312 463.988281 407.378906 465.253906 C 407.0625 466.515625 406.777344 467.789062 406.523438 469.066406 C 406.269531 470.34375 406.046875 471.625 405.855469 472.914062 C 405.664062 474.203125 405.507812 475.496094 405.378906 476.792969 C 405.25 478.089844 405.15625 479.386719 405.089844 480.6875 C 405.027344 481.988281 404.996094 483.292969 404.996094 484.59375 C 404.996094 485.898438 405.027344 487.199219 405.089844 488.5 C 405.15625 489.800781 405.25 491.101562 405.378906 492.398438 C 405.507812 493.691406 405.664062 494.984375 405.855469 496.273438 C 406.046875 497.5625 406.269531 498.847656 406.523438 500.125 C 406.777344 501.402344 407.0625 502.671875 407.378906 503.9375 C 407.695312 505.199219 408.042969 506.453125 408.421875 507.699219 C 408.800781 508.949219 409.210938 510.183594 409.648438 511.410156 C 410.085938 512.636719 410.554688 513.851562 411.054688 515.054688 C 411.550781 516.257812 412.082031 517.449219 412.636719 518.628906 C 413.195312 519.804688 413.78125 520.96875 414.394531 522.117188 C 415.007812 523.265625 415.648438 524.398438 416.320312 525.515625 C 416.988281 526.632812 417.6875 527.734375 418.410156 528.816406 C 419.132812 529.902344 419.882812 530.964844 420.660156 532.011719 C 421.4375 533.058594 422.238281 534.085938 423.0625 535.09375 C 423.890625 536.097656 424.742188 537.085938 425.613281 538.050781 C 426.488281 539.015625 427.386719 539.957031 428.308594 540.878906 C 429.230469 541.800781 430.171875 542.699219 431.140625 543.574219 C 432.105469 544.449219 433.089844 545.300781 434.097656 546.125 C 435.105469 546.953125 436.128906 547.753906 437.175781 548.53125 C 438.222656 549.304688 439.289062 550.054688 440.371094 550.777344 C 441.453125 551.503906 442.554688 552.199219 443.671875 552.871094 C 444.789062 553.539062 445.921875 554.179688 447.070312 554.796875 C 448.21875 555.410156 449.382812 555.996094 450.5625 556.550781 C 451.738281 557.109375 452.929688 557.636719 454.132812 558.136719 C 455.335938 558.632812 456.550781 559.101562 457.777344 559.542969 C 459.003906 559.980469 460.242188 560.386719 461.488281 560.765625 C 462.734375 561.144531 463.988281 561.492188 465.253906 561.808594 C 466.515625 562.125 467.789062 562.410156 469.066406 562.664062 C 470.34375 562.917969 471.625 563.140625 472.914062 563.332031 C 474.203125 563.523438 475.496094 563.683594 476.792969 563.8125 C 478.089844 563.9375 479.386719 564.035156 480.6875 564.097656 C 481.988281 564.164062 483.292969 564.195312 484.59375 564.195312 C 485.898438 564.195312 487.199219 564.164062 488.5 564.097656 C 489.800781 564.035156 491.101562 563.9375 492.398438 563.8125 C 493.691406 563.683594 494.984375 563.523438 496.273438 563.332031 C 497.5625 563.140625 498.847656 562.917969 500.125 562.664062 C 501.402344 562.410156 502.671875 562.125 503.9375 561.808594 C 505.199219 561.492188 506.453125 561.144531 507.699219 560.765625 C 508.949219 560.386719 510.183594 559.980469 511.410156 559.542969 C 512.636719 559.101562 513.851562 558.632812 515.054688 558.136719 C 516.257812 557.636719 517.449219 557.109375 518.628906 556.550781 C 519.804688 555.996094 520.96875 555.410156 522.117188 554.796875 C 523.265625 554.179688 524.398438 553.539062 525.515625 552.871094 C 526.632812 552.199219 527.734375 551.503906 528.816406 550.777344 C 529.902344 550.054688 530.964844 549.304688 532.011719 548.53125 C 533.058594 547.753906 534.085938 546.953125 535.09375 546.125 C 536.097656 545.300781 537.085938 544.449219 538.050781 543.574219 C 539.015625 542.699219 539.957031 541.800781 540.878906 540.878906 C 541.800781 539.957031 542.699219 539.015625 543.574219 538.050781 C 544.449219 537.085938 545.300781 536.097656 546.125 535.09375 C 546.953125 534.085938 547.753906 533.058594 548.53125 532.011719 C 549.304688 530.964844 550.054688 529.902344 550.777344 528.816406 C 551.503906 527.734375 552.199219 526.632812 552.871094 525.515625 C 553.539062 524.398438 554.179688 523.265625 554.796875 522.117188 C 555.410156 520.96875 555.996094 519.804688 556.550781 518.628906 C 557.109375 517.449219 557.636719 516.257812 558.136719 515.054688 C 558.632812 513.851562 559.101562 512.636719 559.542969 511.410156 C 559.980469 510.183594 560.386719 508.949219 560.765625 507.699219 C 561.144531 506.453125 561.492188 505.199219 561.808594 503.9375 C 562.125 502.671875 562.410156 501.402344 562.664062 500.125 C 562.917969 498.847656 563.140625 497.5625 563.332031 496.273438 C 563.523438 494.984375 563.683594 493.691406 563.8125 492.398438 C 563.9375 491.101562 564.035156 489.800781 564.097656 488.5 C 564.164062 487.199219 564.195312 485.898438 564.195312 484.59375 C 564.191406 483.292969 564.160156 481.992188 564.09375 480.691406 C 564.027344 479.390625 563.933594 478.089844 563.800781 476.796875 C 563.671875 475.5 563.511719 474.207031 563.320312 472.917969 C 563.128906 471.632812 562.90625 470.347656 562.648438 469.070312 C 562.394531 467.792969 562.109375 466.523438 561.789062 465.261719 C 561.472656 464 561.125 462.742188 560.746094 461.5 C 560.367188 460.253906 559.957031 459.015625 559.519531 457.789062 C 559.078125 456.5625 558.609375 455.351562 558.109375 454.148438 C 557.613281 452.945312 557.082031 451.753906 556.527344 450.578125 C 555.96875 449.398438 555.382812 448.238281 554.769531 447.089844 C 554.152344 445.941406 553.511719 444.808594 552.84375 443.691406 C 552.171875 442.574219 551.476562 441.476562 550.75 440.394531 C 550.027344 439.308594 549.277344 438.246094 548.5 437.199219 C 547.726562 436.152344 546.925781 435.128906 546.097656 434.121094 C 545.273438 433.113281 544.421875 432.128906 543.546875 431.164062 C 542.671875 430.199219 541.773438 429.257812 540.855469 428.335938 C 539.933594 427.414062 538.988281 426.515625 538.023438 425.640625 C 537.058594 424.769531 536.074219 423.917969 535.066406 423.089844 C 534.0625 422.265625 533.035156 421.464844 531.988281 420.6875 C 530.941406 419.910156 529.878906 419.160156 528.796875 418.4375 C 527.714844 417.714844 526.613281 417.015625 525.496094 416.347656 C 524.378906 415.675781 523.246094 415.035156 522.101562 414.421875 C 520.953125 413.804688 519.789062 413.21875 518.613281 412.664062 C 517.433594 412.105469 516.246094 411.578125 515.042969 411.078125 C 513.839844 410.578125 512.625 410.109375 511.398438 409.671875 C 510.171875 409.230469 508.9375 408.820312 507.691406 408.441406 C 506.445312 408.0625 505.191406 407.714844 503.925781 407.398438 C 502.664062 407.082031 501.394531 406.792969 500.117188 406.539062 C 498.839844 406.285156 497.558594 406.058594 496.269531 405.867188 C 494.980469 405.675781 493.691406 405.515625 492.394531 405.386719 C 491.097656 405.257812 489.800781 405.160156 488.5 405.09375 C 487.199219 405.03125 485.898438 404.996094 484.59375 404.996094 Z M 490.71875 551.636719 L 490.71875 539.703125 C 490.71875 539.300781 490.679688 538.902344 490.601562 538.507812 C 490.523438 538.113281 490.40625 537.730469 490.25 537.359375 C 490.097656 536.988281 489.910156 536.632812 489.6875 536.300781 C 489.460938 535.964844 489.207031 535.65625 488.925781 535.371094 C 488.640625 535.089844 488.332031 534.835938 487.996094 534.609375 C 487.660156 534.386719 487.308594 534.199219 486.9375 534.046875 C 486.566406 533.890625 486.183594 533.773438 485.789062 533.695312 C 485.394531 533.617188 484.996094 533.578125 484.59375 533.578125 C 484.191406 533.578125 483.792969 533.617188 483.398438 533.695312 C 483.003906 533.773438 482.621094 533.890625 482.25 534.046875 C 481.878906 534.199219 481.527344 534.386719 481.191406 534.609375 C 480.859375 534.835938 480.550781 535.089844 480.265625 535.371094 C 479.980469 535.65625 479.726562 535.964844 479.503906 536.300781 C 479.28125 536.632812 479.089844 536.988281 478.9375 537.359375 C 478.785156 537.730469 478.667969 538.113281 478.589844 538.507812 C 478.511719 538.902344 478.472656 539.300781 478.472656 539.703125 L 478.472656 551.636719 C 476.53125 551.457031 474.601562 551.195312 472.6875 550.847656 C 470.769531 550.5 468.871094 550.074219 466.988281 549.5625 C 465.109375 549.050781 463.253906 548.457031 461.425781 547.785156 C 459.597656 547.113281 457.800781 546.363281 456.039062 545.535156 C 454.273438 544.707031 452.550781 543.804688 450.863281 542.828125 C 449.179688 541.851562 447.539062 540.800781 445.945312 539.683594 C 444.351562 538.5625 442.808594 537.375 441.316406 536.125 C 439.824219 534.871094 438.390625 533.554688 437.011719 532.175781 C 435.632812 530.800781 434.320312 529.363281 433.066406 527.875 C 431.8125 526.382812 430.625 524.839844 429.507812 523.242188 C 428.386719 521.648438 427.339844 520.007812 426.359375 518.324219 C 425.382812 516.640625 424.480469 514.914062 423.652344 513.152344 C 422.824219 511.386719 422.074219 509.589844 421.402344 507.761719 C 420.730469 505.933594 420.140625 504.078125 419.628906 502.199219 C 419.117188 500.320312 418.6875 498.421875 418.339844 496.503906 C 417.992188 494.585938 417.730469 492.65625 417.550781 490.71875 L 429.488281 490.71875 C 429.890625 490.71875 430.289062 490.679688 430.683594 490.601562 C 431.074219 490.523438 431.457031 490.40625 431.832031 490.25 C 432.203125 490.097656 432.554688 489.910156 432.890625 489.6875 C 433.222656 489.460938 433.53125 489.207031 433.816406 488.925781 C 434.101562 488.640625 434.355469 488.332031 434.578125 487.996094 C 434.800781 487.660156 434.988281 487.308594 435.144531 486.9375 C 435.296875 486.566406 435.414062 486.183594 435.492188 485.789062 C 435.570312 485.394531 435.609375 484.996094 435.609375 484.59375 C 435.609375 484.191406 435.570312 483.792969 435.492188 483.398438 C 435.414062 483.003906 435.296875 482.621094 435.144531 482.25 C 434.988281 481.878906 434.800781 481.527344 434.578125 481.191406 C 434.355469 480.859375 434.101562 480.550781 433.816406 480.265625 C 433.53125 479.980469 433.222656 479.726562 432.890625 479.503906 C 432.554688 479.28125 432.203125 479.089844 431.832031 478.9375 C 431.457031 478.785156 431.074219 478.667969 430.683594 478.589844 C 430.289062 478.511719 429.890625 478.472656 429.488281 478.472656 L 417.550781 478.472656 C 417.730469 476.53125 417.992188 474.601562 418.339844 472.6875 C 418.6875 470.769531 419.117188 468.871094 419.628906 466.988281 C 420.140625 465.109375 420.730469 463.257812 421.402344 461.425781 C 422.074219 459.597656 422.824219 457.800781 423.652344 456.039062 C 424.480469 454.273438 425.382812 452.550781 426.359375 450.863281 C 427.339844 449.179688 428.386719 447.539062 429.507812 445.945312 C 430.625 444.351562 431.8125 442.808594 433.066406 441.316406 C 434.320312 439.824219 435.632812 438.390625 437.011719 437.011719 C 438.390625 435.632812 439.824219 434.320312 441.316406 433.066406 C 442.808594 431.8125 444.351562 430.625 445.945312 429.507812 C 447.539062 428.386719 449.179688 427.339844 450.863281 426.359375 C 452.550781 425.382812 454.273438 424.480469 456.039062 423.652344 C 457.800781 422.824219 459.597656 422.074219 461.425781 421.402344 C 463.257812 420.730469 465.109375 420.140625 466.988281 419.628906 C 468.871094 419.117188 470.769531 418.6875 472.6875 418.339844 C 474.601562 417.992188 476.53125 417.730469 478.472656 417.550781 L 478.472656 429.488281 C 478.472656 429.890625 478.511719 430.289062 478.589844 430.683594 C 478.667969 431.074219 478.785156 431.457031 478.9375 431.832031 C 479.089844 432.203125 479.28125 432.554688 479.503906 432.890625 C 479.726562 433.222656 479.980469 433.53125 480.265625 433.816406 C 480.550781 434.101562 480.859375 434.355469 481.191406 434.578125 C 481.527344 434.800781 481.878906 434.992188 482.25 435.144531 C 482.621094 435.296875 483.003906 435.414062 483.398438 435.492188 C 483.792969 435.570312 484.191406 435.609375 484.59375 435.609375 C 484.996094 435.609375 485.394531 435.570312 485.789062 435.492188 C 486.183594 435.414062 486.566406 435.296875 486.9375 435.144531 C 487.308594 434.992188 487.660156 434.800781 487.996094 434.578125 C 488.332031 434.355469 488.640625 434.101562 488.925781 433.816406 C 489.207031 433.53125 489.460938 433.222656 489.6875 432.890625 C 489.910156 432.554688 490.097656 432.203125 490.25 431.832031 C 490.40625 431.457031 490.523438 431.074219 490.601562 430.683594 C 490.679688 430.289062 490.71875 429.890625 490.71875 429.488281 L 490.71875 417.550781 C 492.65625 417.730469 494.585938 417.992188 496.503906 418.339844 C 498.421875 418.6875 500.320312 419.117188 502.199219 419.628906 C 504.078125 420.140625 505.933594 420.730469 507.761719 421.402344 C 509.589844 422.074219 511.386719 422.824219 513.152344 423.652344 C 514.914062 424.480469 516.636719 425.382812 518.324219 426.359375 C 520.007812 427.339844 521.648438 428.386719 523.242188 429.507812 C 524.839844 430.625 526.382812 431.8125 527.875 433.066406 C 529.363281 434.320312 530.800781 435.632812 532.175781 437.011719 C 533.554688 438.390625 534.871094 439.824219 536.125 441.316406 C 537.375 442.808594 538.5625 444.351562 539.683594 445.945312 C 540.800781 447.539062 541.851562 449.179688 542.828125 450.863281 C 543.804688 452.550781 544.707031 454.273438 545.535156 456.039062 C 546.363281 457.800781 547.113281 459.597656 547.785156 461.425781 C 548.457031 463.257812 549.050781 465.109375 549.5625 466.988281 C 550.074219 468.871094 550.5 470.769531 550.847656 472.6875 C 551.195312 474.601562 551.457031 476.53125 551.636719 478.472656 L 539.703125 478.472656 C 539.300781 478.472656 538.902344 478.511719 538.507812 478.589844 C 538.113281 478.667969 537.730469 478.785156 537.359375 478.9375 C 536.988281 479.089844 536.632812 479.28125 536.300781 479.503906 C 535.964844 479.726562 535.65625 479.980469 535.371094 480.265625 C 535.089844 480.550781 534.835938 480.859375 534.609375 481.191406 C 534.386719 481.527344 534.199219 481.878906 534.046875 482.25 C 533.890625 482.621094 533.773438 483.003906 533.695312 483.398438 C 533.617188 483.792969 533.578125 484.191406 533.578125 484.59375 C 533.578125 484.996094 533.617188 485.394531 533.695312 485.789062 C 533.773438 486.183594 533.890625 486.566406 534.046875 486.9375 C 534.199219 487.308594 534.386719 487.660156 534.609375 487.996094 C 534.835938 488.332031 535.089844 488.640625 535.371094 488.925781 C 535.65625 489.207031 535.964844 489.460938 536.300781 489.6875 C 536.632812 489.910156 536.988281 490.097656 537.359375 490.25 C 537.730469 490.40625 538.113281 490.523438 538.507812 490.601562 C 538.902344 490.679688 539.300781 490.71875 539.703125 490.71875 L 551.636719 490.71875 C 551.457031 492.65625 551.195312 494.585938 550.847656 496.503906 C 550.5 498.421875 550.074219 500.320312 549.5625 502.199219 C 549.050781 504.078125 548.457031 505.933594 547.785156 507.761719 C 547.113281 509.589844 546.363281 511.386719 545.535156 513.152344 C 544.707031 514.914062 543.804688 516.640625 542.828125 518.324219 C 541.851562 520.007812 540.800781 521.648438 539.683594 523.242188 C 538.5625 524.839844 537.375 526.382812 536.125 527.875 C 534.871094 529.363281 533.554688 530.800781 532.175781 532.175781 C 530.800781 533.554688 529.363281 534.871094 527.875 536.125 C 526.382812 537.375 524.839844 538.5625 523.242188 539.683594 C 521.648438 540.800781 520.007812 541.851562 518.324219 542.828125 C 516.636719 543.804688 514.914062 544.707031 513.152344 545.535156 C 511.386719 546.363281 509.589844 547.113281 507.761719 547.785156 C 505.933594 548.457031 504.078125 549.050781 502.199219 549.5625 C 500.320312 550.074219 498.421875 550.5 496.503906 550.847656 C 494.585938 551.195312 492.65625 551.457031 490.71875 551.636719 Z M 507.292969 498.632812 C 507.582031 498.917969 507.839844 499.226562 508.066406 499.5625 C 508.292969 499.894531 508.484375 500.25 508.644531 500.621094 C 508.800781 500.992188 508.917969 501.378906 509 501.773438 C 509.082031 502.171875 509.121094 502.570312 509.125 502.976562 C 509.125 503.378906 509.089844 503.78125 509.011719 504.175781 C 508.933594 504.574219 508.816406 504.957031 508.664062 505.332031 C 508.507812 505.707031 508.320312 506.0625 508.097656 506.398438 C 507.871094 506.734375 507.617188 507.046875 507.332031 507.332031 C 507.046875 507.617188 506.734375 507.871094 506.398438 508.097656 C 506.0625 508.320312 505.707031 508.511719 505.332031 508.664062 C 504.957031 508.816406 504.574219 508.933594 504.175781 509.011719 C 503.78125 509.089844 503.378906 509.125 502.976562 509.125 C 502.570312 509.121094 502.171875 509.082031 501.773438 509 C 501.378906 508.917969 500.992188 508.800781 500.621094 508.644531 C 500.25 508.484375 499.894531 508.292969 499.5625 508.066406 C 499.226562 507.839844 498.917969 507.582031 498.632812 507.292969 L 480.265625 488.921875 C 479.691406 488.347656 479.25 487.6875 478.9375 486.9375 C 478.628906 486.1875 478.472656 485.40625 478.472656 484.59375 L 478.472656 453.980469 C 478.472656 453.578125 478.511719 453.179688 478.589844 452.785156 C 478.667969 452.390625 478.785156 452.007812 478.9375 451.636719 C 479.089844 451.265625 479.28125 450.910156 479.503906 450.578125 C 479.726562 450.242188 479.980469 449.933594 480.265625 449.648438 C 480.550781 449.367188 480.859375 449.113281 481.191406 448.886719 C 481.527344 448.664062 481.878906 448.476562 482.25 448.324219 C 482.621094 448.167969 483.003906 448.050781 483.398438 447.972656 C 483.792969 447.894531 484.191406 447.855469 484.59375 447.855469 C 484.996094 447.855469 485.394531 447.894531 485.789062 447.972656 C 486.183594 448.050781 486.566406 448.167969 486.9375 448.324219 C 487.308594 448.476562 487.660156 448.664062 487.996094 448.886719 C 488.332031 449.113281 488.640625 449.367188 488.925781 449.648438 C 489.207031 449.933594 489.460938 450.242188 489.6875 450.578125 C 489.910156 450.910156 490.097656 451.265625 490.25 451.636719 C 490.40625 452.007812 490.523438 452.390625 490.601562 452.785156 C 490.679688 453.179688 490.71875 453.578125 490.71875 453.980469 L 490.71875 482.058594 Z M 507.292969 498.632812 " fill-opacity="1" fill-rule="nonzero"/></g></svg>