<svg xmlns="http://www.w3.org/2000/svg" xmlns:xlink="http://www.w3.org/1999/xlink" width="1080" zoomAndPan="magnify" viewBox="0 0 810 809.999993" height="1080" preserveAspectRatio="xMidYMid meet" version="1.0"><defs><clipPath id="1bc0d2834d"><path d="M 221.605469 225 L 533 225 L 533 536 L 221.605469 536 Z M 221.605469 225 " clip-rule="nonzero"/></clipPath></defs><path fill="#c38ac4" d="M 316.652344 412.421875 L 279.175781 412.421875 C 274.695312 412.421875 271.023438 408.75 271.023438 404.269531 L 271.023438 379.546875 C 271.023438 375.089844 274.695312 371.417969 279.175781 371.417969 L 316.652344 371.417969 C 321.109375 371.417969 324.78125 375.089844 324.78125 379.546875 L 324.78125 404.269531 C 324.78125 408.75 321.109375 412.421875 316.652344 412.421875 " fill-opacity="1" fill-rule="nonzero"/><path fill="#c38ac4" d="M 395.679688 412.421875 L 358.230469 412.421875 C 353.746094 412.421875 350.074219 408.75 350.074219 404.269531 L 350.074219 379.546875 C 350.074219 375.089844 353.746094 371.417969 358.230469 371.417969 L 395.679688 371.417969 C 400.164062 371.417969 403.835938 375.089844 403.835938 379.546875 L 403.835938 404.269531 C 403.835938 408.75 400.164062 412.421875 395.679688 412.421875 " fill-opacity="1" fill-rule="nonzero"/><path fill="#c38ac4" d="M 482.863281 379.546875 L 482.863281 396.949219 C 478.59375 397.59375 474.304688 398.476562 470.011719 399.621094 C 459.617188 402.410156 449.890625 406.722656 441.09375 412.421875 L 437.257812 412.421875 C 432.773438 412.421875 429.128906 408.75 429.128906 404.269531 L 429.128906 379.546875 C 429.128906 375.089844 432.773438 371.417969 437.257812 371.417969 L 474.734375 371.417969 C 479.214844 371.417969 482.863281 375.089844 482.863281 379.546875 " fill-opacity="1" fill-rule="nonzero"/><path fill="#c38ac4" d="M 316.652344 483.273438 L 279.175781 483.273438 C 274.695312 483.273438 271.023438 479.601562 271.023438 475.144531 L 271.023438 450.421875 C 271.023438 445.9375 274.695312 442.269531 279.175781 442.269531 L 316.652344 442.269531 C 321.109375 442.269531 324.78125 445.9375 324.78125 450.421875 L 324.78125 475.144531 C 324.78125 479.601562 321.109375 483.273438 316.652344 483.273438 " fill-opacity="1" fill-rule="nonzero"/><path fill="#c38ac4" d="M 403.835938 450.421875 L 403.835938 456.523438 C 400.164062 465.035156 397.683594 474.023438 396.445312 483.222656 C 396.207031 483.25 395.941406 483.273438 395.679688 483.273438 L 358.230469 483.273438 C 353.746094 483.273438 350.074219 479.601562 350.074219 475.144531 L 350.074219 450.421875 C 350.074219 445.9375 353.746094 442.269531 358.230469 442.269531 L 395.679688 442.269531 C 400.164062 442.269531 403.835938 445.9375 403.835938 450.421875 " fill-opacity="1" fill-rule="nonzero"/><path fill="#c38ac4" d="M 437.636719 271.839844 C 437.636719 272.460938 437.636719 273.078125 437.664062 273.699219 C 437.6875 277.15625 439.285156 279.921875 441.953125 282.019531 C 445.71875 284.976562 449.914062 285.453125 454.230469 283.542969 C 459.238281 281.304688 461.214844 277.011719 461.238281 271.769531 C 461.289062 260.515625 461.3125 249.289062 461.214844 238.035156 C 461.214844 236.269531 460.882812 234.386719 460.261719 232.71875 C 458.472656 227.710938 453.085938 224.46875 448.054688 225.160156 C 442.261719 225.949219 437.902344 230.3125 437.6875 236.054688 C 437.542969 240.347656 437.566406 244.636719 437.613281 248.953125 C 406.742188 249.050781 337.058594 249.167969 335.820312 249.289062 C 335.820312 250.695312 335.820312 251.789062 335.820312 252.886719 C 335.796875 259.203125 335.890625 265.523438 335.75 271.839844 C 365.90625 271.839844 406.335938 271.839844 437.636719 271.839844 " fill-opacity="1" fill-rule="nonzero"/><g clip-path="url(#1bc0d2834d)"><path fill="#c38ac4" d="M 532.402344 402.121094 C 532.402344 363.359375 532.375 324.621094 532.375 285.855469 C 532.375 284.953125 532.351562 284.046875 532.304688 283.117188 C 531.445312 266.667969 519.835938 252.933594 503.699219 249.90625 C 498.476562 248.929688 493.042969 249.167969 487.675781 249.023438 C 482.863281 248.90625 484.101562 249 478.882812 249 L 478.882812 252.625 C 478.882812 258.894531 478.929688 265.164062 478.855469 271.457031 C 478.855469 271.578125 478.855469 271.71875 478.855469 271.839844 L 494.78125 271.839844 C 503.769531 271.839844 508.679688 276.773438 508.679688 285.761719 L 508.679688 308.863281 L 245.207031 308.863281 L 245.207031 285.785156 C 245.207031 276.773438 250.140625 271.839844 259.128906 271.839844 L 292.695312 271.839844 C 292.742188 273.460938 292.957031 275.128906 293.457031 276.65625 C 295.148438 282.042969 300.371094 285.164062 306.308594 284.472656 C 311.574219 283.902344 316.007812 279.398438 316.222656 273.867188 C 316.4375 267.5 316.273438 261.136719 316.273438 254.746094 C 316.273438 248.476562 316.414062 242.183594 316.222656 235.9375 C 316.058594 230.929688 312.601562 226.949219 307.808594 225.613281 C 299.773438 223.351562 292.742188 229.117188 292.671875 238.179688 C 292.648438 241.777344 292.648438 245.402344 292.621094 249 C 287.546875 249 272.742188 248.929688 269.070312 249 C 263.109375 249.144531 257.03125 248.691406 251.214844 249.691406 C 233.285156 252.769531 221.535156 267.429688 221.535156 286.046875 C 221.507812 356.996094 221.484375 427.941406 221.535156 498.886719 C 221.535156 520.269531 237.125 535.886719 258.484375 535.886719 C 306.710938 535.910156 354.914062 535.910156 403.144531 535.910156 C 400.378906 529.234375 398.351562 522.273438 397.113281 515.121094 C 396.921875 514.144531 396.777344 513.191406 396.632812 512.214844 C 350.792969 512.214844 304.949219 512.214844 259.128906 512.214844 C 250.140625 512.214844 245.207031 507.277344 245.207031 498.289062 C 245.207031 462.867188 245.207031 427.441406 245.207031 392.039062 C 245.207031 370.773438 245.207031 349.554688 245.207031 328.292969 L 508.679688 328.292969 C 508.703125 349.53125 508.703125 370.773438 508.703125 392.039062 L 508.703125 396.351562 C 516.882812 397.234375 524.773438 399.167969 532.402344 402.121094 " fill-opacity="1" fill-rule="nonzero"/></g><path fill="#c38ac4" d="M 579.171875 467.371094 L 577.21875 469.636719 C 573.476562 473.878906 569.828125 478.148438 566.039062 482.34375 C 565.964844 482.390625 565.964844 482.390625 565.917969 482.460938 C 567.085938 487.492188 567.707031 492.808594 567.707031 498.195312 C 567.707031 537.625 535.59375 569.738281 496.140625 569.738281 C 456.710938 569.738281 424.597656 537.625 424.597656 498.195312 C 424.597656 458.695312 456.710938 426.652344 496.140625 426.652344 C 510.398438 426.652344 523.769531 430.847656 534.925781 438.121094 C 539.71875 434.496094 544.582031 431.015625 549.542969 427.582031 C 534.640625 416.308594 516.191406 409.609375 496.140625 409.609375 C 447.292969 409.609375 407.578125 449.347656 407.578125 498.195312 C 407.578125 547.019531 447.292969 586.757812 496.140625 586.757812 C 544.988281 586.757812 584.726562 547.019531 584.726562 498.195312 C 584.726562 487.371094 582.773438 476.953125 579.171875 467.371094 " fill-opacity="1" fill-rule="nonzero"/><path fill="#c38ac4" d="M 587.875 429.371094 C 587.707031 427.320312 586.183594 425.960938 582.441406 425.960938 C 582.175781 425.960938 581.890625 425.984375 581.628906 426.007812 C 580.316406 426.175781 579.199219 426.699219 578.363281 427.128906 L 577.3125 427.703125 C 576.359375 428.203125 575.382812 428.726562 574.40625 429.226562 C 572.023438 430.515625 569.234375 432.066406 566.46875 433.902344 C 547.632812 446.390625 529.707031 460.601562 512.375 474.332031 L 511.300781 475.167969 C 507.128906 478.457031 502.910156 481.890625 498.8125 485.179688 C 497.640625 486.132812 496.472656 487.0625 495.304688 488.015625 C 493.46875 486.492188 491.636719 484.941406 489.800781 483.414062 C 484.484375 478.957031 478.976562 474.332031 473.398438 469.96875 C 469.964844 467.300781 465.984375 465.464844 462.933594 464.175781 C 459.90625 462.890625 456.972656 463.460938 455.28125 465.558594 C 454.015625 467.132812 453.609375 469.351562 454.160156 471.804688 C 454.589844 473.878906 455.183594 476.3125 456.160156 478.671875 C 461.597656 491.925781 469.179688 505.277344 480 520.722656 C 483.433594 525.609375 488.65625 528.398438 494.328125 528.398438 C 499.023438 528.398438 503.578125 526.46875 507.15625 522.964844 C 510.539062 519.628906 514.042969 516.097656 517.546875 512.476562 C 530.253906 499.363281 542.890625 486.179688 555 472.519531 C 561.484375 465.226562 567.875 457.835938 574.335938 450.492188 C 576.050781 448.5625 588.328125 435.640625 587.875 429.371094 " fill-opacity="1" fill-rule="nonzero"/></svg>