<svg xmlns="http://www.w3.org/2000/svg" xmlns:xlink="http://www.w3.org/1999/xlink" width="500" zoomAndPan="magnify" viewBox="0 0 375 374.999991" height="500" preserveAspectRatio="xMidYMid meet" version="1.0"><defs><g/><clipPath id="40973e047a"><path d="M 75 192 L 104 192 L 104 224.164062 L 75 224.164062 Z M 75 192 " clip-rule="nonzero"/></clipPath><clipPath id="a5181aec02"><path d="M 58.445312 152.164062 L 117 152.164062 L 117 198 L 58.445312 198 Z M 58.445312 152.164062 " clip-rule="nonzero"/></clipPath><clipPath id="bd59fa4801"><path d="M 122 189 L 140.195312 189 L 140.195312 198 L 122 198 Z M 122 189 " clip-rule="nonzero"/></clipPath><clipPath id="e2c82f6e54"><path d="M 133.222656 189.847656 L 307.265625 189.847656 L 307.265625 196.886719 L 133.222656 196.886719 Z M 133.222656 189.847656 " clip-rule="nonzero"/></clipPath><clipPath id="8bb644cf2d"><path d="M 136.742188 189.847656 L 303.722656 189.847656 C 305.664062 189.847656 307.242188 191.421875 307.242188 193.367188 C 307.242188 195.3125 305.664062 196.886719 303.722656 196.886719 L 136.742188 196.886719 C 134.796875 196.886719 133.222656 195.3125 133.222656 193.367188 C 133.222656 191.421875 134.796875 189.847656 136.742188 189.847656 Z M 136.742188 189.847656 " clip-rule="nonzero"/></clipPath></defs><g clip-path="url(#40973e047a)"><path fill="#c38ac4" d="M 96.292969 192.921875 L 96.292969 210.484375 C 96.292969 214.179688 93.300781 217.171875 89.605469 217.171875 C 85.910156 217.171875 82.914062 214.179688 82.914062 210.484375 L 82.914062 199.847656 L 75.777344 199.847656 L 75.777344 210.484375 C 75.777344 218.121094 81.96875 224.3125 89.605469 224.3125 C 97.242188 224.3125 103.433594 218.121094 103.433594 210.484375 L 103.433594 192.921875 L 96.292969 192.921875 " fill-opacity="1" fill-rule="nonzero"/></g><path fill="#a7a5a6" d="M 103.433594 199.847656 L 103.433594 192.921875 L 96.292969 192.921875 L 103.433594 192.921875 L 103.433594 199.847656 " fill-opacity="1" fill-rule="nonzero"/><path fill="#cb6ce6" d="M 96.292969 199.847656 L 103.433594 199.847656 L 103.433594 192.921875 L 96.292969 192.921875 Z M 96.292969 199.847656 " fill-opacity="1" fill-rule="nonzero"/><g clip-path="url(#a5181aec02)"><path fill="#51cf82" d="M 113.132812 189.867188 L 72.375 189.867188 C 68.695312 189.867188 65.632812 186.945312 65.582031 183.269531 C 65.535156 179.53125 68.546875 176.488281 72.273438 176.488281 L 82.902344 176.488281 L 82.902344 165.996094 C 82.902344 162.300781 85.902344 159.308594 89.597656 159.308594 C 93.292969 159.308594 96.285156 162.300781 96.285156 165.996094 L 96.285156 186.949219 L 103.460938 186.949219 L 103.460938 165.996094 C 103.460938 158.359375 97.269531 152.167969 89.632812 152.167969 L 89.585938 152.167969 C 81.960938 152.167969 75.726562 158.40625 75.726562 166.03125 L 75.726562 169.308594 L 72.273438 169.308594 C 64.636719 169.308594 58.445312 175.539062 58.445312 183.179688 C 58.445312 190.816406 64.636719 197.046875 72.273438 197.046875 L 113.132812 197.046875 C 115.113281 197.046875 116.722656 195.4375 116.722656 193.457031 C 116.722656 191.476562 115.113281 189.867188 113.132812 189.867188 " fill-opacity="1" fill-rule="nonzero"/></g><g clip-path="url(#bd59fa4801)"><path fill="#51cf82" d="M 122.683594 193.457031 C 122.683594 195.4375 124.289062 197.046875 126.273438 197.046875 L 136.734375 197.046875 C 138.714844 197.046875 140.324219 195.4375 140.324219 193.457031 C 140.324219 191.476562 138.714844 189.867188 136.734375 189.867188 L 126.273438 189.867188 C 124.289062 189.867188 122.683594 191.476562 122.683594 193.457031 " fill-opacity="1" fill-rule="nonzero"/></g><g clip-path="url(#e2c82f6e54)"><g clip-path="url(#8bb644cf2d)"><path fill="#c38ac4" d="M 133.222656 189.847656 L 307.238281 189.847656 L 307.238281 196.886719 L 133.222656 196.886719 Z M 133.222656 189.847656 " fill-opacity="1" fill-rule="nonzero"/></g></g><g fill="#51cf82" fill-opacity="1"><g transform="translate(123.66987, 183.632467)"><g><path d="M 15.703125 -6.78125 C 15.703125 -7.78125 15.347656 -8.550781 14.640625 -9.09375 C 13.929688 -9.632812 12.648438 -10.203125 10.796875 -10.796875 C 8.953125 -11.390625 7.492188 -11.976562 6.421875 -12.5625 C 3.484375 -14.144531 2.015625 -16.28125 2.015625 -18.96875 C 2.015625 -20.363281 2.410156 -21.609375 3.203125 -22.703125 C 3.992188 -23.796875 5.125 -24.648438 6.59375 -25.265625 C 8.0625 -25.878906 9.710938 -26.1875 11.546875 -26.1875 C 13.398438 -26.1875 15.046875 -25.851562 16.484375 -25.1875 C 17.929688 -24.519531 19.050781 -23.578125 19.84375 -22.359375 C 20.644531 -21.140625 21.046875 -19.753906 21.046875 -18.203125 L 15.71875 -18.203125 C 15.71875 -19.390625 15.34375 -20.3125 14.59375 -20.96875 C 13.851562 -21.625 12.8125 -21.953125 11.46875 -21.953125 C 10.164062 -21.953125 9.148438 -21.675781 8.421875 -21.125 C 7.703125 -20.570312 7.34375 -19.847656 7.34375 -18.953125 C 7.34375 -18.109375 7.765625 -17.398438 8.609375 -16.828125 C 9.460938 -16.265625 10.707031 -15.738281 12.34375 -15.25 C 15.375 -14.332031 17.582031 -13.195312 18.96875 -11.84375 C 20.351562 -10.5 21.046875 -8.820312 21.046875 -6.8125 C 21.046875 -4.570312 20.195312 -2.816406 18.5 -1.546875 C 16.8125 -0.273438 14.535156 0.359375 11.671875 0.359375 C 9.691406 0.359375 7.882812 -0.00390625 6.25 -0.734375 C 4.613281 -1.460938 3.363281 -2.457031 2.5 -3.71875 C 1.644531 -4.988281 1.21875 -6.457031 1.21875 -8.125 L 6.5625 -8.125 C 6.5625 -5.269531 8.265625 -3.84375 11.671875 -3.84375 C 12.941406 -3.84375 13.929688 -4.097656 14.640625 -4.609375 C 15.347656 -5.128906 15.703125 -5.851562 15.703125 -6.78125 Z M 15.703125 -6.78125 "/></g></g></g><g fill="#51cf82" fill-opacity="1"><g transform="translate(146.009289, 183.632467)"><g><path d="M 9.140625 -7.265625 L 12.6875 -19.203125 L 18.1875 -19.203125 L 10.46875 2.984375 L 10.046875 4 C 8.898438 6.5 7.003906 7.75 4.359375 7.75 C 3.617188 7.75 2.863281 7.640625 2.09375 7.421875 L 2.09375 3.53125 L 2.875 3.546875 C 3.84375 3.546875 4.566406 3.394531 5.046875 3.09375 C 5.523438 2.800781 5.898438 2.3125 6.171875 1.625 L 6.78125 0.046875 L 0.046875 -19.203125 L 5.578125 -19.203125 Z M 9.140625 -7.265625 "/></g></g></g><g fill="#51cf82" fill-opacity="1"><g transform="translate(164.249895, 183.632467)"><g><path d="M 12.375 -5.3125 C 12.375 -5.9375 12.0625 -6.425781 11.4375 -6.78125 C 10.8125 -7.144531 9.816406 -7.46875 8.453125 -7.75 C 3.878906 -8.707031 1.59375 -10.648438 1.59375 -13.578125 C 1.59375 -15.273438 2.300781 -16.695312 3.71875 -17.84375 C 5.132812 -18.988281 6.984375 -19.5625 9.265625 -19.5625 C 11.703125 -19.5625 13.648438 -18.984375 15.109375 -17.828125 C 16.566406 -16.679688 17.296875 -15.191406 17.296875 -13.359375 L 12.171875 -13.359375 C 12.171875 -14.097656 11.929688 -14.707031 11.453125 -15.1875 C 10.984375 -15.664062 10.25 -15.90625 9.25 -15.90625 C 8.382812 -15.90625 7.710938 -15.707031 7.234375 -15.3125 C 6.765625 -14.925781 6.53125 -14.429688 6.53125 -13.828125 C 6.53125 -13.253906 6.796875 -12.789062 7.328125 -12.4375 C 7.867188 -12.09375 8.78125 -11.789062 10.0625 -11.53125 C 11.34375 -11.28125 12.421875 -11 13.296875 -10.6875 C 16.003906 -9.6875 17.359375 -7.960938 17.359375 -5.515625 C 17.359375 -3.765625 16.601562 -2.347656 15.09375 -1.265625 C 13.59375 -0.179688 11.65625 0.359375 9.28125 0.359375 C 7.675781 0.359375 6.25 0.0703125 5 -0.5 C 3.75 -1.070312 2.769531 -1.859375 2.0625 -2.859375 C 1.351562 -3.859375 1 -4.941406 1 -6.109375 L 5.859375 -6.109375 C 5.898438 -5.191406 6.234375 -4.488281 6.859375 -4 C 7.492188 -3.519531 8.335938 -3.28125 9.390625 -3.28125 C 10.367188 -3.28125 11.109375 -3.46875 11.609375 -3.84375 C 12.117188 -4.21875 12.375 -4.707031 12.375 -5.3125 Z M 12.375 -5.3125 "/></g></g></g><g fill="#51cf82" fill-opacity="1"><g transform="translate(182.934095, 183.632467)"><g><path d="M 8.109375 -23.921875 L 8.109375 -19.203125 L 11.390625 -19.203125 L 11.390625 -15.4375 L 8.109375 -15.4375 L 8.109375 -5.859375 C 8.109375 -5.148438 8.242188 -4.640625 8.515625 -4.328125 C 8.785156 -4.023438 9.304688 -3.875 10.078125 -3.875 C 10.648438 -3.875 11.15625 -3.914062 11.59375 -4 L 11.59375 -0.109375 C 10.582031 0.203125 9.546875 0.359375 8.484375 0.359375 C 4.890625 0.359375 3.054688 -1.457031 2.984375 -5.09375 L 2.984375 -15.4375 L 0.171875 -15.4375 L 0.171875 -19.203125 L 2.984375 -19.203125 L 2.984375 -23.921875 Z M 8.109375 -23.921875 "/></g></g></g><g fill="#51cf82" fill-opacity="1"><g transform="translate(195.212791, 183.632467)"><g><path d="M 10.8125 0.359375 C 7.988281 0.359375 5.691406 -0.503906 3.921875 -2.234375 C 2.160156 -3.960938 1.28125 -6.265625 1.28125 -9.140625 L 1.28125 -9.640625 C 1.28125 -11.566406 1.648438 -13.289062 2.390625 -14.8125 C 3.140625 -16.332031 4.195312 -17.503906 5.5625 -18.328125 C 6.925781 -19.148438 8.484375 -19.5625 10.234375 -19.5625 C 12.859375 -19.5625 14.925781 -18.734375 16.4375 -17.078125 C 17.945312 -15.421875 18.703125 -13.070312 18.703125 -10.03125 L 18.703125 -7.9375 L 6.484375 -7.9375 C 6.640625 -6.675781 7.132812 -5.664062 7.96875 -4.90625 C 8.8125 -4.15625 9.867188 -3.78125 11.140625 -3.78125 C 13.117188 -3.78125 14.664062 -4.492188 15.78125 -5.921875 L 18.296875 -3.109375 C 17.523438 -2.015625 16.484375 -1.160156 15.171875 -0.546875 C 13.859375 0.0546875 12.40625 0.359375 10.8125 0.359375 Z M 10.21875 -15.40625 C 9.207031 -15.40625 8.382812 -15.0625 7.75 -14.375 C 7.113281 -13.6875 6.707031 -12.703125 6.53125 -11.421875 L 13.671875 -11.421875 L 13.671875 -11.84375 C 13.640625 -12.976562 13.328125 -13.851562 12.734375 -14.46875 C 12.148438 -15.09375 11.3125 -15.40625 10.21875 -15.40625 Z M 10.21875 -15.40625 "/></g></g></g><g fill="#51cf82" fill-opacity="1"><g transform="translate(214.855156, 183.632467)"><g><path d="M 9.265625 -25.84375 L 15.90625 -7.09375 L 22.5 -25.84375 L 29.5 -25.84375 L 29.5 0 L 24.15625 0 L 24.15625 -7.0625 L 24.6875 -19.25 L 17.703125 0 L 14.0625 0 L 7.09375 -19.234375 L 7.625 -7.0625 L 7.625 0 L 2.3125 0 L 2.3125 -25.84375 Z M 9.265625 -25.84375 "/></g></g></g><g fill="#51cf82" fill-opacity="1"><g transform="translate(246.687498, 183.632467)"><g><path d="M 10.8125 0.359375 C 7.988281 0.359375 5.691406 -0.503906 3.921875 -2.234375 C 2.160156 -3.960938 1.28125 -6.265625 1.28125 -9.140625 L 1.28125 -9.640625 C 1.28125 -11.566406 1.648438 -13.289062 2.390625 -14.8125 C 3.140625 -16.332031 4.195312 -17.503906 5.5625 -18.328125 C 6.925781 -19.148438 8.484375 -19.5625 10.234375 -19.5625 C 12.859375 -19.5625 14.925781 -18.734375 16.4375 -17.078125 C 17.945312 -15.421875 18.703125 -13.070312 18.703125 -10.03125 L 18.703125 -7.9375 L 6.484375 -7.9375 C 6.640625 -6.675781 7.132812 -5.664062 7.96875 -4.90625 C 8.8125 -4.15625 9.867188 -3.78125 11.140625 -3.78125 C 13.117188 -3.78125 14.664062 -4.492188 15.78125 -5.921875 L 18.296875 -3.109375 C 17.523438 -2.015625 16.484375 -1.160156 15.171875 -0.546875 C 13.859375 0.0546875 12.40625 0.359375 10.8125 0.359375 Z M 10.21875 -15.40625 C 9.207031 -15.40625 8.382812 -15.0625 7.75 -14.375 C 7.113281 -13.6875 6.707031 -12.703125 6.53125 -11.421875 L 13.671875 -11.421875 L 13.671875 -11.84375 C 13.640625 -12.976562 13.328125 -13.851562 12.734375 -14.46875 C 12.148438 -15.09375 11.3125 -15.40625 10.21875 -15.40625 Z M 10.21875 -15.40625 "/></g></g></g><g fill="#51cf82" fill-opacity="1"><g transform="translate(266.329862, 183.632467)"><g><path d="M 1.171875 -9.75 C 1.171875 -12.738281 1.84375 -15.117188 3.1875 -16.890625 C 4.53125 -18.671875 6.367188 -19.5625 8.703125 -19.5625 C 10.566406 -19.5625 12.109375 -18.863281 13.328125 -17.46875 L 13.328125 -27.265625 L 18.46875 -27.265625 L 18.46875 0 L 13.84375 0 L 13.59375 -2.046875 C 12.3125 -0.441406 10.664062 0.359375 8.65625 0.359375 C 6.394531 0.359375 4.582031 -0.53125 3.21875 -2.3125 C 1.851562 -4.09375 1.171875 -6.570312 1.171875 -9.75 Z M 6.296875 -9.375 C 6.296875 -7.570312 6.609375 -6.191406 7.234375 -5.234375 C 7.867188 -4.273438 8.78125 -3.796875 9.96875 -3.796875 C 11.550781 -3.796875 12.671875 -4.460938 13.328125 -5.796875 L 13.328125 -13.375 C 12.691406 -14.71875 11.585938 -15.390625 10.015625 -15.390625 C 7.535156 -15.390625 6.296875 -13.382812 6.296875 -9.375 Z M 6.296875 -9.375 "/></g></g></g></svg>