<svg xmlns="http://www.w3.org/2000/svg" xmlns:xlink="http://www.w3.org/1999/xlink" width="1080" zoomAndPan="magnify" viewBox="0 0 810 809.999993" height="1080" preserveAspectRatio="xMidYMid meet" version="1.0"><defs><clipPath id="df84b06461"><path d="M 223 206.210938 L 587 206.210938 L 587 603.710938 L 223 603.710938 Z M 223 206.210938 " clip-rule="nonzero"/></clipPath></defs><g clip-path="url(#df84b06461)"><path fill="#c38ac4" d="M 353.558594 485.476562 L 340.183594 498.851562 C 338.550781 500.484375 335.90625 500.484375 334.273438 498.851562 L 326.578125 491.152344 C 322.6875 487.265625 328.597656 481.355469 332.488281 485.242188 L 337.230469 489.988281 L 347.648438 479.566406 C 351.539062 475.679688 357.445312 481.589844 353.558594 485.476562 Z M 497.335938 327.550781 L 396.402344 327.550781 C 390.960938 327.550781 390.882812 335.945312 396.402344 335.945312 L 497.335938 335.945312 C 502.777344 335.945312 502.855469 327.550781 497.335938 327.550781 Z M 347.648438 400.796875 L 337.230469 411.21875 L 332.488281 406.472656 C 328.597656 402.585938 322.6875 408.496094 326.578125 412.382812 L 334.273438 420.082031 C 335.90625 421.714844 338.550781 421.714844 340.183594 420.082031 L 353.558594 406.707031 C 357.445312 402.820312 351.539062 396.910156 347.648438 400.796875 Z M 497.335938 426.148438 L 396.402344 426.148438 C 390.960938 426.148438 390.882812 434.546875 396.402344 434.546875 L 497.335938 434.546875 C 502.777344 434.546875 502.855469 426.226562 497.335938 426.148438 Z M 578.671875 499.394531 C 578.671875 499.394531 528.828125 525.988281 528.828125 525.910156 L 528.828125 555.070312 C 528.828125 563.3125 522.140625 570 513.898438 570 L 446.167969 570 L 386.21875 601.960938 C 383.960938 603.125 381.628906 603.671875 379.296875 603.671875 C 374.007812 603.671875 368.800781 600.792969 366.15625 595.816406 L 352.390625 570.078125 L 296.015625 570.078125 C 287.851562 570.078125 281.164062 563.390625 281.164062 555.148438 L 281.164062 436.179688 L 225.257812 331.203125 C 221.371094 324.207031 224.246094 314.640625 231.398438 311.066406 L 281.164062 284.546875 L 281.164062 255.390625 C 281.164062 247.226562 287.851562 240.539062 296.015625 240.539062 L 363.902344 240.539062 L 423.851562 208.578125 C 427.351562 206.710938 431.394531 206.324219 435.207031 207.488281 C 439.015625 208.65625 442.125 211.222656 443.992188 214.722656 L 457.675781 240.460938 L 514.050781 240.460938 C 522.296875 240.460938 528.980469 247.148438 528.980469 255.3125 L 528.980469 374.28125 L 584.890625 479.179688 C 588.625 486.410156 585.902344 495.429688 578.671875 499.394531 Z M 281.089844 294.113281 L 235.289062 318.527344 C 232.179688 320.085938 230.933594 324.285156 232.566406 327.316406 L 281.089844 418.371094 Z M 381.707031 240.539062 L 448.113281 240.539062 L 436.527344 218.6875 C 434.972656 215.578125 430.773438 214.332031 427.742188 215.964844 Z M 428.285156 570 L 361.878906 570 L 373.542969 591.851562 C 375.253906 595.039062 379.140625 596.207031 382.328125 594.574219 Z M 520.507812 255.390625 C 520.507812 251.8125 517.550781 248.933594 513.976562 248.933594 L 295.941406 248.933594 C 292.363281 248.933594 289.484375 251.8125 289.484375 255.390625 L 289.484375 555.070312 C 289.484375 558.648438 292.363281 561.601562 295.941406 561.601562 L 513.976562 561.601562 C 517.550781 561.601562 520.507812 558.648438 520.507812 555.070312 Z M 577.347656 483.144531 L 528.90625 392.167969 L 528.90625 516.425781 L 574.703125 492.007812 C 577.816406 490.296875 579.058594 486.332031 577.347656 483.144531 Z M 396.402344 316.042969 L 445.160156 316.042969 C 447.492188 316.042969 449.359375 314.175781 449.359375 311.84375 C 449.359375 309.507812 447.492188 307.644531 445.160156 307.644531 L 396.402344 307.644531 C 390.882812 307.644531 390.882812 316.042969 396.402344 316.042969 Z M 396.402344 394.734375 L 445.160156 394.734375 C 447.492188 394.734375 449.359375 392.867188 449.359375 390.535156 C 449.359375 388.199219 447.492188 386.335938 445.160156 386.335938 L 396.402344 386.335938 C 390.882812 386.335938 390.882812 394.734375 396.402344 394.734375 Z M 370.898438 489.210938 C 369.421875 529.953125 310.714844 529.953125 309.3125 489.210938 C 309.3125 472.257812 323.15625 458.417969 340.105469 458.417969 C 357.058594 458.417969 370.898438 472.179688 370.898438 489.210938 Z M 340.105469 466.738281 C 310.480469 467.671875 310.480469 510.59375 340.105469 511.527344 C 369.65625 510.671875 369.65625 467.671875 340.105469 466.738281 Z M 370.898438 331.75 C 369.421875 372.492188 310.714844 372.492188 309.3125 331.75 C 309.3125 314.796875 323.15625 300.957031 340.105469 300.957031 C 357.058594 300.957031 370.898438 314.796875 370.898438 331.75 Z M 340.105469 309.355469 C 310.480469 310.285156 310.480469 353.210938 340.105469 354.144531 C 369.65625 353.210938 369.65625 310.285156 340.105469 309.355469 Z M 497.335938 504.917969 L 396.402344 504.917969 C 390.960938 504.917969 390.882812 513.316406 396.402344 513.316406 L 497.335938 513.316406 C 502.777344 513.238281 502.855469 504.917969 497.335938 504.917969 Z M 396.402344 473.425781 L 445.160156 473.425781 C 447.492188 473.425781 449.359375 471.558594 449.359375 469.226562 C 449.359375 466.894531 447.492188 465.027344 445.160156 465.027344 L 396.402344 465.027344 C 390.882812 465.105469 390.882812 473.425781 396.402344 473.425781 Z M 497.335938 485.011719 L 396.402344 485.011719 C 390.960938 485.011719 390.882812 493.410156 396.402344 493.410156 L 497.335938 493.410156 C 502.777344 493.332031 502.855469 485.011719 497.335938 485.011719 Z M 497.335938 347.457031 L 396.402344 347.457031 C 390.960938 347.457031 390.882812 355.851562 396.402344 355.851562 L 497.335938 355.851562 C 502.777344 355.851562 502.855469 347.457031 497.335938 347.457031 Z M 370.898438 410.441406 C 369.421875 451.183594 310.714844 451.183594 309.3125 410.441406 C 309.3125 393.488281 323.15625 379.648438 340.105469 379.648438 C 357.058594 379.648438 370.898438 393.488281 370.898438 410.441406 Z M 340.105469 388.046875 C 310.480469 388.980469 310.480469 431.902344 340.105469 432.835938 C 369.65625 431.902344 369.65625 388.980469 340.105469 388.046875 Z M 497.335938 406.242188 L 396.402344 406.242188 C 390.960938 406.242188 390.882812 414.640625 396.402344 414.640625 L 497.335938 414.640625 C 502.777344 414.640625 502.855469 406.320312 497.335938 406.242188 Z M 347.648438 322.105469 L 337.230469 332.527344 L 332.488281 327.78125 C 328.597656 323.894531 322.6875 329.804688 326.578125 333.691406 L 334.273438 341.390625 C 335.828125 343.023438 338.628906 343.023438 340.183594 341.390625 L 353.558594 328.015625 C 357.445312 324.128906 351.539062 318.21875 347.648438 322.105469 Z M 347.648438 322.105469 " fill-opacity="1" fill-rule="nonzero"/></g></svg>